<?xml version="1.0" encoding="utf-8" ?>
<svg baseProfile="full" height="200mm" version="1.1" viewBox="0,0,200,200" width="200mm" xmlns="http://www.w3.org/2000/svg" xmlns:ev="http://www.w3.org/2001/xml-events" xmlns:xlink="http://www.w3.org/1999/xlink"><defs /><rect fill="#1a1a1a" height="200" width="200" x="0" y="0" /><text alignment-baseline="middle" fill="#e1ed5e" style="dominant-baseline: central; font-size:9.0px; font-family:Arial;" text-anchor="middle" x="100.0" y="100.0">2018</text><line stroke="#e1ed5e" stroke-width="0.3" x1="100.0" x2="100.0" y1="15.0" y2="10.0" /><path d="M 100.0 14.0 a86.0,86.0 0 0,1 42.46469731375804,11.215312516191453" fill="none" id="id13" stroke="none" /><text fill="#e1ed5e" style="font-size:6.75px; font-family:Arial;" text-anchor="middle"><textPath startOffset="22.20632615414155" xlink:href="#id13">January</textPath></text><path d="M 100.72285384407766 79.0124445844662 l 0.2877961374236822 -8.355959412878466 a29.360914084380262,29.360914084380262 0 0,0 0.5049506329049108,0.021744236444757307 l -0.43158760271792457 8.349767449909514" fill="#ff4906" stroke="none" /><path d="M 101.08401301168833 79.027996857942 l 0.7284840365683258 -14.093714133610993 a35.112528727038296,35.112528727038296 0 0,0 0.6033301393297509,0.03639452162751319 l -0.9709762247376886 14.079086342603176" fill="#ff9b0e" stroke="none" /><path d="M 102.16513564639614 79.11191278185805 l 3.066611472388263 -29.58505071311414 a50.74355949815218,50.74355949815218 0 0,0 0.8680369597224571,0.09753406650717858 l -3.5754151356204456 29.52788069313636" fill="#9eff22" stroke="none" /><path d="M 102.88285421437855 79.19881850522331 l 2.763103207197186 -19.937120307728748 a41.127680082375946,41.127680082375946 0 0,0 0.7004063885935322,0.10322169495258415 l -3.1058785762193737 19.886604128615193" fill="#ffea16" stroke="none" /><path d="M 103.2404852339499 79.25152402106235 l 1.6978786332194893 -10.871332992795445 a32.00312105238264,32.00312105238264 0 0,0 0.5435513615136663,0.08969063197753763 l -1.8847592008720309 10.840496097878281" fill="#ff6f0a" stroke="none" /><path d="M 103.59715602781102 79.31037775812273 l 4.373411812536198 -25.154382409316824 a46.531738782859634,46.531738782859634 0 0,0 0.7879482540357262,0.14399250698653834 l -4.8057551876748255 25.075374420979546" fill="#d0ff1d" stroke="none" /><path d="M 103.95276090670814 79.375362276772 l 4.960165767950881 -25.88105489444872 a47.35208240149191,47.35208240149191 0 0,0 0.7991985040366345,0.16031170144057713 l -5.4049306814546405 25.791839236930937" fill="#c6ff1e" stroke="none" /><path d="M 104.307194497241 79.44645832069477 l 2.917107595999525 -13.920173002588996 a35.22254313224768,35.22254313224768 0 0,0 0.5923379705223549,0.12946213774026274 l -3.1562882906754077 13.867897366752862" fill="#ff9c0e" stroke="none" /><path d="M 104.66035177308747 79.52364482259891 l 4.548606287705451 -19.985375019772878 a41.49646393506732,41.49646393506732 0 0,0 0.6951177660557426,0.16451191687111286 l -4.891947740723717 19.904117190760896" fill="#ffef16" stroke="none" /><path d="M 105.36241919743992 79.69619591428918 l 4.116157047623966 -15.585063980241197 a37.11945929952106,37.11945929952106 0 0,0 0.6163635146960738,0.16847543183309313 l -4.383818451543751 15.51190200758181" fill="#ffb610" stroke="none" /><path d="M 105.71112130821622 79.79150937346287 l 4.403881631036214 -15.58289447172868 a37.19323233752948,37.19323233752948 0 0,0 0.614591212171814,0.17941602803365012 l -4.671463060931456 15.504780114776327" fill="#ffb710" stroke="none" /><path d="M 106.0581310904928 79.89281104454417 l 4.752548808406253 -15.773907081775898 a37.47430923592196,37.47430923592196 0 0,0 0.6160323664667661,0.19140425495312868 l -5.023366547583737 15.689762691940249" fill="#ffba11" stroke="none" /><path d="M 107.4271985657038 80.35727306442388 l 5.835168162312195 -15.432280936278516 a37.49862062048483,37.49862062048483 0 0,0 0.6017936399235247,0.2334865828651801 l -6.099944967235388 15.32955164952279" fill="#ffbb11" stroke="none" /><path d="M 108.09893153111575 80.62456947434976 l 3.624474652393702 -8.670990308984601 a30.39802582696756,30.39802582696756 0 0,0 0.4810360815909907,0.20595454588858192 l -3.773194491775008 8.60731623513323" fill="#ff5808" stroke="none" /><line stroke="#e1ed5e" stroke-width="0.3" x1="143.23703022742887" x2="145.7803849466894" y1="26.81831364943548" y2="22.513508569990506" /><path d="M 143.74570117128098 25.957352633546492 a86.0,86.0 0 0,1 28.547481713284135,27.462654790039103" fill="none" id="id14" stroke="none" /><text fill="#e1ed5e" style="font-size:6.75px; font-family:Arial;" text-anchor="middle"><textPath startOffset="19.985693538727396" xlink:href="#id14">February</textPath></text><path d="M 111.90073688211348 82.69761687909136 l 2.980339601775416 -4.33309114646829 a26.2590971682897,26.2590971682897 0 0,0 0.37021433210370047,0.2593587984779953 l -3.0544850734627675 4.28114750522636" fill="#ff1c02" stroke="none" /><path d="M 112.48926042617603 83.11751280151076 l 10.28775808593758 -13.906583597454363 a38.29829569026269,38.29829569026269 0 0,0 0.5266085802410523,0.3966306648967542 l -10.525612819937017 13.72743634305176" fill="#ffc512" stroke="none" /><path d="M 116.38621287248628 86.86637796730983 l 12.49658407930978 -10.01606736556971 a37.01518713980231,37.01518713980231 0 0,0 0.39420455046988406,0.5005997469978826 l -12.667142710373628 9.799475224618787" fill="#ffb410" stroke="none" /><path d="M 117.45458315368197 88.32363383020206 l 6.861739802911285 -4.590209104121075 a29.255512869738197,29.255512869738197 0 0,0 0.276399627985028,0.4209755961096935 l -6.9397360662542384 4.471415444033707" fill="#ff4806" stroke="none" /><path d="M 117.65298651832404 88.62581576622439 l 7.611198371761772 -4.904052491648895 a30.054284703672444,30.054284703672444 0 0,0 0.276459924729372,0.43729320892733653 l -7.6944858927371005 4.772311635007352" fill="#ff5307" stroke="none" /><line stroke="#e1ed5e" stroke-width="0.3" x1="172.23445277983987" x2="176.4835382374775" y1="55.19839476539836" y2="52.563006222186495" /><path d="M 173.08426987136738 54.67131705675599 a86.0,86.0 0 0,1 12.851231095245387,41.99856678651699" fill="none" id="id15" stroke="none" /><text fill="#e1ed5e" style="font-size:6.75px; font-family:Arial;" text-anchor="middle"><textPath startOffset="22.20632615414155" xlink:href="#id15">March</textPath></text><path d="M 117.84615892207809 88.93136811851018 l 13.832846001559192 -8.579475333214624 a37.27743915657774,37.27743915657774 0 0,0 0.33351628085083174,0.5482130735173066 l -13.978478080696249 8.340094486490237" fill="#ffb811" stroke="none" /><path d="M 118.89224826269711 90.83032412892265 l 30.469186549076987 -14.788740907141703 a54.86854272892503,54.86854272892503 0 0,0 0.4050913317125387,0.8532256557562643 l -30.719236074631283 14.262072835744899" fill="#70ff27" stroke="none" /><path d="M 119.04729006885535 91.15688171328212 l 15.413337211309072 -7.155976711645023 a37.993497776712445,37.993497776712445 0 0,0 0.27029240658566983,0.5955534892953217 l -15.534231934858088 6.889601213507639" fill="#ffc112" stroke="none" /><path d="M 119.196687751892 91.48605970444005 l 15.359797103415712 -6.812237464117066 a37.802676760731245,37.802676760731245 0 0,0 0.2586950401586322,0.5971038199262241 l -15.474782853417025 6.546834499604239" fill="#ffbf11" stroke="none" /><path d="M 119.47837535516314 92.15188598940014 l 13.092639022119606 -5.275210168798118 a35.11541848081452,35.11541848081452 0 0,0 0.2210707057984295,0.5626008329224289 l -13.181503277799735 5.049060330979905" fill="#ff9b0e" stroke="none" /><path d="M 119.61058180528143 92.48833698450437 l 18.715243760050065 -7.168711554518616 a41.04122686738468,41.04122686738468 0 0,0 0.24702013134767808,0.6618911413292041 l -18.835868479899368 6.845497276160079" fill="#ffe915" stroke="none" /><path d="M 119.7369772167798 92.82701384747503 l 5.824288208627704 -2.1167141356014194 a27.197000231484147,27.197000231484147 0 0,0 0.1561197423390624,0.4413715349031291 l -5.859861031776576 2.0161449742716755" fill="#ff2a04" stroke="none" /><path d="M 119.97218684219823 93.5106431181261 l 28.01986239667649 -9.104205178415961 a50.46182683845965,50.46182683845965 0 0,0 0.2613069975105164,0.8284145906846581 l -28.172424877955216 8.620540421304884" fill="#a2ff22" stroke="none" /><path d="M 120.53481517161879 95.60439243477599 l 32.331261307892014 -6.9207117575921915 a54.063676580060935,54.063676580060935 0 0,0 0.18695915517466274,0.9116792378241714 l -32.44559975898167 6.363156863604608" fill="#79ff26" stroke="none" /><path d="M 120.6074358757038 95.95851677861258 l 16.305122586520945 -3.1977233729394805 a37.61572921455206,37.61572921455206 0 0,0 0.11914204753850893,0.6364615820077277 l -16.357750357969312 2.91658371346919" fill="#ffbc11" stroke="none" /><path d="M 120.83666639777658 97.38593545837742 l 10.881963254865381 -1.365196991915118 a31.967264340161336,31.967264340161336 0 0,0 0.06379698875891056,0.5465736395218844 l -10.903850596627882 1.1776796140683807" fill="#ff6f0a" stroke="none" /><path d="M 120.91429891909075 98.10471618934814 l 28.54470419942713 -2.58676209794617 a49.66167259571855,49.66167259571855 0 0,0 0.06982316751313535,0.8520194992581778 l -28.58500185075976 2.0950286814802235" fill="#abff21" stroke="none" /><path d="M 120.94382443527127 98.46500227214037 l 29.14684539693726 -2.1362068612085947 a50.22502311969723,50.22502311969723 0 0,0 0.05577227885432888,0.8627724684815484 l -29.179298266796003 1.6341753284740113" fill="#a4ff21" stroke="none" /><path d="M 120.96714384426684 98.82574320788733 l 62.90143153280055 -3.5227703763380056 a84.0,84.0 0 0,0 0.0684255670660141,1.444355573508001 l -62.95275070810006 2.4395036962070047" fill="#4dd2ff" stroke="none" /><line stroke="#e1ed5e" stroke-width="0.3" x1="184.98032266829074" x2="189.97916517819016" y1="98.17113171792111" y2="98.06355123074" /><path d="M 185.9800911702706 98.14961562048488 a86.0,86.0 0 0,1 -9.607161424134198,41.387399972396054" fill="none" id="id16" stroke="none" /><text fill="#e1ed5e" style="font-size:6.75px; font-family:Arial;" text-anchor="middle"><textPath startOffset="21.466115282336823" xlink:href="#id16">April</textPath></text><path d="M 120.99980553446 99.90962569577887 l 25.437075632180395 -0.10947044285273093 a46.43731118839261,46.43731118839261 0 0,0 -0.0034401262325702113,0.7993641834433293 l -25.43519120865832 -0.3284032187942831" fill="#d1ff1c" stroke="none" /><path d="M 120.9904718944345 100.63252640178507 l 13.629759172988827 0.41071885235574596 a34.6359460650647,34.6359460650647 0 0,0 -0.02308711293293653,0.5957757995189081 l -13.620669927204688 -0.6452718988886602" fill="#ff940d" stroke="none" /><path d="M 120.89721153311464 102.0752229133903 l 16.137138683049283 1.6025181110194544 a37.21651347152374,37.21651347152374 0 0,0 -0.06879330471998331,0.6369405632518973 l -16.10716307682825 -1.8800549961561432" fill="#ffb711" stroke="none" /><path d="M 120.8583938346157 102.4346265915055 l 12.450267507919826 1.453216033146068 a33.53479149638146,33.53479149638146 0 0,0 -0.07185785738375225,0.5727778249250511 l -12.423408141289224 -1.6673116123585139" fill="#ff850c" stroke="none" /><path d="M 120.81339534386255 102.79330883721812 l 27.489367363991196 3.6892727745170393 a48.735826140161336,48.735826140161336 0 0,0 -0.1187435616167277,0.8304921933824888 l -27.421789751357867 -4.161910439879938" fill="#b6ff1f" stroke="none" /><path d="M 120.76222939487914 103.15116336523771 l 8.475541961364804 1.2863655834462062 a29.57260450231611,29.57260450231611 0 0,0 -0.08071665757334394,0.5026227037592791 l -8.452143549430172 -1.4320675168986903" fill="#ff4c07" stroke="none" /><path d="M 120.64145759157962 103.86396538481128 l 6.629855810418307 1.2410719177213807 a27.745016499008287,27.745016499008287 0 0,0 -0.09191536463939577,0.4686744640617416 l -6.6075105128032465 -1.3550101088510673" fill="#ff3204" stroke="none" /><path d="M 120.41448212921028 104.9243191809786 l 6.613673169466578 1.5953300915984425 a27.803363204598266,27.803363204598266 0 0,0 -0.11622955780517842,0.4642793069988293 l -6.585232297366339 -1.708937237994668" fill="#ff3304" stroke="none" /><path d="M 119.41010516605496 108.01547362559984 l 7.548926926034773 3.117356869504806 a29.16726463306177,29.16726463306177 0 0,0 -0.19562764785100095,0.4624059720467916 l -7.494148296991463 -3.2468373672177613" fill="#ff4706" stroke="none" /><path d="M 118.97047184881838 109.00673069616215 l 38.10086772234425 18.089389531269177 a63.17703326230479,63.17703326230479 0 0,0 -0.4748709027237468,0.9783747117262219 l -37.78384356300579 -18.742553198960675" fill="#32ff4a" stroke="none" /><line stroke="#e1ed5e" stroke-width="0.3" x1="174.80103733775053" x2="179.2010983576182" y1="140.37084112569926" y2="142.7455964860345" /><path d="M 175.68104954172406 140.8457921977663 a86.0,86.0 0 0,1 -30.038265399797805,32.042727171017184" fill="none" id="id17" stroke="none" /><text fill="#e1ed5e" style="font-size:6.75px; font-family:Arial;" text-anchor="middle"><textPath startOffset="22.206326154141568" xlink:href="#id17">May</textPath></text><path d="M 118.30583269289576 110.29060199501025 l 12.715682461035696 7.148105715629782 a35.587117459310114,35.587117459310114 0 0,0 -0.30477485894036793,0.5314006561118434 l -12.590755605942949 -7.365926217599941" fill="#ffa10e" stroke="none" /><path d="M 117.75023020441432 111.22182372390056 l 24.675655229667417 15.600127438922364 a50.193354331491804,50.193354331491804 0 0,0 -0.46798165089993143,0.726317914706159 l -24.403468715390435 -16.022566953549976" fill="#a5ff21" stroke="none" /><path d="M 117.55443506779139 111.5257021239791 l 8.793961985039532 5.773844953582651 a31.520031033335037,31.520031033335037 0 0,0 -0.3016870645265735,0.45098122802878926 l -8.693271815102237 -5.924363095817247" fill="#ff6809" stroke="none" /><line stroke="#e1ed5e" stroke-width="0.3" x1="143.8653032363475" x2="146.44561519142675" y1="172.8068346515853" y2="177.08958963109032" /><path d="M 144.38136562736335 173.6633856474863 a86.0,86.0 0 0,1 -40.68145358897372,12.25698825130547" fill="none" id="id18" stroke="none" /><text fill="#e1ed5e" style="font-size:6.75px; font-family:Arial;" text-anchor="middle"><textPath startOffset="21.466115282336833" xlink:href="#id18">June</textPath></text><line stroke="#e1ed5e" stroke-width="0.3" x1="102.19456741930631" x2="102.32365962044197" y1="184.97166512339345" y2="189.96999836594603" /><path d="M 102.22038585953345 185.97133177190398 a86.0,86.0 0 0,1 -42.740103519485714,-10.115201625700543" fill="none" id="id19" stroke="none" /><text fill="#e1ed5e" style="font-size:6.75px; font-family:Arial;" text-anchor="middle"><textPath startOffset="22.20632615414155" xlink:href="#id19">July</textPath></text><line stroke="#e1ed5e" stroke-width="0.3" x1="58.666819895761336" x2="56.23545636021788" y1="174.27360380694188" y2="178.64263932499728" /><path d="M 58.180547188652646 175.14741091055294 a86.0,86.0 0 0,1 -31.652253787137756,-30.449443065178592" fill="none" id="id20" stroke="none" /><text fill="#e1ed5e" style="font-size:6.75px; font-family:Arial;" text-anchor="middle"><textPath startOffset="22.20632615414155" xlink:href="#id20">August</textPath></text><path d="M 83.95833913139862 113.55231037782056 l -12.407340154081156 10.48196481078982 a37.2423420723032,37.2423420723032 0 0,0 -0.40949551227752634,-0.4932637241014141 l 12.585931666252218 -10.266839829574646" fill="#ffb711" stroke="none" /><path d="M 83.28015986056508 112.70617746262583 l -16.807245724300486 12.77260099677836 a42.10978079137537,42.10978079137537 0 0,0 -0.4336078884797452,-0.5808886258070374 l 17.02461487947532 -12.481399491462014" fill="#fff717" stroke="none" /><line stroke="#e1ed5e" stroke-width="0.3" x1="26.63291911575756" x2="22.317208475507996" y1="142.92168965132927" y2="145.44649492493687" /><path d="M 25.769776987707644 143.4266507060508 a86.0,86.0 0 0,1 -11.730757126820373,-40.83630448921669" fill="none" id="id21" stroke="none" /><text fill="#e1ed5e" style="font-size:6.75px; font-family:Arial;" text-anchor="middle"><textPath startOffset="21.46611528233685" xlink:href="#id21">September</textPath></text><path d="M 79.76711848015287 105.62410040840567 l -3.3033410340776315 0.9182242104583628 a24.42858537710423,24.42858537710423 0 0,0 -0.10912821840358744,-0.40610669737345395 l 3.3186573288229937 -0.8612265799093699" fill="#ff0000" stroke="none" /><path d="M 79.29508885075956 103.50808413554451 l -9.359620101424605 1.585823506117083 a30.493014517820196,30.493014517820196 0 0,0 -0.08322886173319738,-0.5182662014607811 l 9.385530717519092 -1.424478074963088" fill="#ff5a08" stroke="none" /><line stroke="#e1ed5e" stroke-width="0.3" x1="15.007084014347285" x2="10.007500721073583" y1="101.09737516637583" y2="101.16192664675087" /><path d="M 14.007167355692545 101.11028546245083 a86.0,86.0 0 0,1 10.666146001902534,-42.60595125391555" fill="none" id="id22" stroke="none" /><text fill="#e1ed5e" style="font-size:6.75px; font-family:Arial;" text-anchor="middle"><textPath startOffset="22.20632615414155" xlink:href="#id22">October</textPath></text><line stroke="#e1ed5e" stroke-width="0.3" x1="26.266209847984243" x2="21.928928074336255" y1="57.711370442889674" y2="55.22380399835377" /><path d="M 25.398753493254645 57.213857153982495 a86.0,86.0 0 0,1 29.58750427330803,-30.492523968695096" fill="none" id="id23" stroke="none" /><text fill="#e1ed5e" style="font-size:6.75px; font-family:Arial;" text-anchor="middle"><textPath startOffset="21.46611528233685" xlink:href="#id23">November</textPath></text><path d="M 82.95767976084542 87.72973835380427 l -13.27503295936698 -9.557860988850031 a37.357848475715286,37.357848475715286 0 0,0 0.38022709215766326,-0.5186293263952565 l 13.108543254695684 9.784952758916788" fill="#ffb911" stroke="none" /><path d="M 85.57189188830299 84.74124197986013 l -9.45603400596567 -10.000433432451807 a34.76318451372643,34.76318451372643 0 0,0 0.4383341520675955,-0.40738382296518616 l 9.282491970103218 10.16172184149164" fill="#ff960d" stroke="none" /><line stroke="#e1ed5e" stroke-width="0.3" x1="56.762969772571076" x2="54.21961505331055" y1="26.818313649435495" y2="22.513508569990535" /><path d="M 56.25429882871897 25.957352633546506 a86.0,86.0 0 0,1 42.265352541879196,-11.944610805530505" fill="none" id="id24" stroke="none" /><text fill="#e1ed5e" style="font-size:6.75px; font-family:Arial;" text-anchor="middle"><textPath startOffset="22.20632615414155" xlink:href="#id24">December</textPath></text></svg>