<?xml version="1.0" encoding="utf-8" ?>
<svg baseProfile="full" height="200mm" version="1.1" viewBox="0,0,200,200" width="200mm" xmlns="http://www.w3.org/2000/svg" xmlns:ev="http://www.w3.org/2001/xml-events" xmlns:xlink="http://www.w3.org/1999/xlink"><defs /><rect fill="#1a1a1a" height="200" width="200" x="0" y="0" /><text alignment-baseline="middle" fill="#e1ed5e" style="dominant-baseline: central; font-size:9.0px; font-family:Arial;" text-anchor="middle" x="100.0" y="100.0">2019</text><line stroke="#e1ed5e" stroke-width="0.3" x1="100.0" x2="100.0" y1="15.0" y2="10.0" /><path d="M 100.0 14.0 a86.0,86.0 0 0,1 42.46469731375804,11.215312516191453" fill="none" id="id25" stroke="none" /><text fill="#e1ed5e" style="font-size:6.75px; font-family:Arial;" text-anchor="middle"><textPath startOffset="22.20632615414155" xlink:href="#id25">January</textPath></text><path d="M 102.88285421437855 79.19881850522331 l 0.30592102920414993 -2.207367552547622 a23.22846565783487,23.22846565783487 0 0,0 0.39558189791854476,0.05829848879263831 l -0.34387190755135044 2.2017745795940145" fill="#ff0000" stroke="none" /><line stroke="#e1ed5e" stroke-width="0.3" x1="143.23703022742887" x2="145.7803849466894" y1="26.81831364943548" y2="22.513508569990506" /><path d="M 143.74570117128098 25.957352633546492 a86.0,86.0 0 0,1 28.547481713284135,27.462654790039103" fill="none" id="id26" stroke="none" /><text fill="#e1ed5e" style="font-size:6.75px; font-family:Arial;" text-anchor="middle"><textPath startOffset="19.985693538727396" xlink:href="#id26">February</textPath></text><line stroke="#e1ed5e" stroke-width="0.3" x1="172.23445277983987" x2="176.4835382374775" y1="55.19839476539836" y2="52.563006222186495" /><path d="M 173.08426987136738 54.67131705675599 a86.0,86.0 0 0,1 12.851231095245387,41.99856678651699" fill="none" id="id27" stroke="none" /><text fill="#e1ed5e" style="font-size:6.75px; font-family:Arial;" text-anchor="middle"><textPath startOffset="22.20632615414155" xlink:href="#id27">March</textPath></text><line stroke="#e1ed5e" stroke-width="0.3" x1="184.98032266829074" x2="189.97916517819016" y1="98.17113171792111" y2="98.06355123074" /><path d="M 185.9800911702706 98.14961562048488 a86.0,86.0 0 0,1 -9.607161424134198,41.387399972396054" fill="none" id="id28" stroke="none" /><text fill="#e1ed5e" style="font-size:6.75px; font-family:Arial;" text-anchor="middle"><textPath startOffset="21.466115282336823" xlink:href="#id28">April</textPath></text><line stroke="#e1ed5e" stroke-width="0.3" x1="174.80103733775053" x2="179.2010983576182" y1="140.37084112569926" y2="142.7455964860345" /><path d="M 175.68104954172406 140.8457921977663 a86.0,86.0 0 0,1 -30.038265399797805,32.042727171017184" fill="none" id="id29" stroke="none" /><text fill="#e1ed5e" style="font-size:6.75px; font-family:Arial;" text-anchor="middle"><textPath startOffset="22.206326154141568" xlink:href="#id29">May</textPath></text><line stroke="#e1ed5e" stroke-width="0.3" x1="143.8653032363475" x2="146.44561519142675" y1="172.8068346515853" y2="177.08958963109032" /><path d="M 144.38136562736335 173.6633856474863 a86.0,86.0 0 0,1 -40.68145358897372,12.25698825130547" fill="none" id="id30" stroke="none" /><text fill="#e1ed5e" style="font-size:6.75px; font-family:Arial;" text-anchor="middle"><textPath startOffset="21.466115282336833" xlink:href="#id30">June</textPath></text><line stroke="#e1ed5e" stroke-width="0.3" x1="102.19456741930631" x2="102.32365962044197" y1="184.97166512339345" y2="189.96999836594603" /><path d="M 102.22038585953345 185.97133177190398 a86.0,86.0 0 0,1 -42.740103519485714,-10.115201625700543" fill="none" id="id31" stroke="none" /><text fill="#e1ed5e" style="font-size:6.75px; font-family:Arial;" text-anchor="middle"><textPath startOffset="22.20632615414155" xlink:href="#id31">July</textPath></text><path d="M 100.18074693466247 120.99922214144158 l 0.15359137981277385 17.844283277733453 a38.84494427023942,38.84494427023942 0 0,0 -0.6686766289504463,0.0 l 0.15359137981276158 -17.844283277733453" fill="#ffd814" stroke="none" /><path d="M 99.81925306533755 120.99922214144158 l -0.3328104956593877 38.66600306337996 a59.66743533935668,59.66743533935668 0 0,0 -1.0269626824936315,-0.017680093909210416 l 0.9983328680456871 -38.654545492191595" fill="#39ff2e" stroke="none" /><path d="M 99.45781275523022 120.99299961872073 l -1.202783402617262 46.57068523120514 a67.58621481530346,67.58621481530346 0 0,0 -1.1627392342911842,-0.04004709021734036 l 2.0042429885830892 -46.543081342561706" fill="#38ff83" stroke="none" /><path d="M 99.09653310690486 120.98055641714683 l -1.2854358813127202 29.85074520673827 a50.87840917456239,50.87840917456239 0 0,0 -0.8746529891503636,-0.04520956889662354 l 1.7990769388765728 -29.824195831079447" fill="#95ff23" stroke="none" /><path d="M 97.65516085044442 120.86867818915974 l -5.966405432222324 53.100015382590634 a74.43416161420532,74.43416161420532 0 0,0 -1.2720180662618676,-0.15402367322463073 l 6.87955092153558 -52.989446180640655" fill="#41ffce" stroke="none" /><path d="M 97.2962882734958 120.8252237178851 l -6.717289187503957 51.73963212726536 a73.17385846085477,73.17385846085477 0 0,0 -1.247688885113033,-0.1729183105096451 l 7.606906663803821 -51.616339251263106" fill="#3fffc0" stroke="none" /><path d="M 96.93821686468263 120.77559828337769 l -3.8825462978848826 26.344851557591035 a47.62940797965149,47.62940797965149 0 0,0 -0.8100722079947537,-0.12651661891239177 l 4.335454369488153 -26.274116631331538" fill="#baff1f" stroke="none" /><path d="M 96.58105272829116 120.7198165907248 l -8.443777172862292 51.17174979630816 a72.86371901590663,72.86371901590663 0 0,0 -1.2357375461850808,-0.214848812176711 l 9.323363690519423 -51.01882240561044" fill="#3fffbd" stroke="none" /><path d="M 92.7421414339146 119.70592522655815 l -17.49155942089588 47.49160636096325 a71.61034801025791,71.61034801025791 0 0,0 -1.1530281506660864,-0.4359765858849738 l 18.30645779232225 -47.18348152497165" fill="#3dffb0" stroke="none" /><path d="M 92.40401165467489 119.57807347666478 l -19.03086926834221 49.050596172874776 a73.61306843383277,73.61306843383277 0 0,0 -1.1773846768958482,-0.4685056613873295 l 19.872375021279918 -48.715743667081384" fill="#40ffc5" stroke="none" /><path d="M 90.10565033884886 118.52300852407294 l -25.23487004378128 47.24168125572911 a74.55908059325176,74.55908059325176 0 0,0 -1.1268262546831265,-0.614435518707583 l 26.04431911033305 -46.80030508526177" fill="#41ffcf" stroke="none" /><line stroke="#e1ed5e" stroke-width="0.3" x1="58.666819895761336" x2="56.23545636021788" y1="174.27360380694188" y2="178.64263932499728" /><path d="M 58.180547188652646 175.14741091055294 a86.0,86.0 0 0,1 -31.652253787137756,-30.449443065178592" fill="none" id="id32" stroke="none" /><text fill="#e1ed5e" style="font-size:6.75px; font-family:Arial;" text-anchor="middle"><textPath startOffset="22.20632615414155" xlink:href="#id32">August</textPath></text><path d="M 89.7882731507175 118.34994917583269 l -11.559407929735311 20.771662926752118 a44.771451205776984,44.771451205776984 0 0,0 -0.6701886139649047,-0.3805505858576785 l 11.915245310621424 -20.569609175099806" fill="#dcff1b" stroke="none" /><path d="M 89.4739219176387 118.17145234162733 l -24.437180796648935 42.18656395435194 a69.75327664437268,69.75327664437268 0 0,0 -1.0337838472749685,-0.6107777188836335 l 25.159732514952285 -41.75966766317456" fill="#3bff9b" stroke="none" /><path d="M 88.54995079064634 117.60387380957326 l -34.350147628061016 52.81162142871978 a84.0,84.0 0 0,0 -1.2053012050401528,-0.7988079156347263 l 35.25412353184113 -52.212515491993734" fill="#4dd2ff" stroke="none" /><path d="M 88.24862548938628 117.40417183066458 l -30.499222962276768 45.17035149018445 a75.50287382376712,75.50287382376712 0 0,0 -1.07085767426645,-0.7365456729620703 l 31.27223752116611 -44.638665027857286" fill="#42ffd9" stroke="none" /><path d="M 87.95078237400918 117.19931262002967 l -19.541196175491354 27.89352407965714 a55.057407910048745,55.057407910048745 0 0,0 -0.7715185974954287,-0.5504580342237241 l 20.018442100835667 -27.553021783589198" fill="#68ff28" stroke="none" /><path d="M 84.4343377721795 114.09645910891817 l -20.342121055587313 18.42208018212282 a48.444032635105415,48.444032635105415 0 0,0 -0.554433072914043,-0.6229114349235666 l 20.65621297814969 -18.069194577458386" fill="#b1ff20" stroke="none" /><path d="M 84.19399662182784 113.82643327865904 l -20.323915656714345 17.77851472414089 a48.002539388319256,48.002539388319256 0 0,0 -0.5386741888800499,-0.6265997783209035 l 20.626932355165177 -17.426037846658456" fill="#b6ff1f" stroke="none" /><path d="M 83.95833913139862 113.55231037782056 l -20.473831333812974 17.296695094837318 a47.802116160654016,47.802116160654016 0 0,0 -0.5256047540499448,-0.6331247855345843 l 20.768532087756455 -16.941709052188973" fill="#b8ff1f" stroke="none" /><path d="M 82.85270091963577 112.12312394758628 l -21.814235984522 15.422643847455403 a47.71551674278206,47.71551674278206 0 0,0 -0.4683825397927194,-0.6747399821919591 l 22.07647943147685 -15.044862603076433" fill="#b9ff1f" stroke="none" /><path d="M 82.44556493220864 111.52570212397912 l -10.801446191836472 7.091897337312557 a33.92154200078766,33.92154200078766 0 0,0 -0.3162701405002621,-0.49085828149508326 l 10.92192119571378 -6.904917455896026" fill="#ff980e" stroke="none" /><line stroke="#e1ed5e" stroke-width="0.3" x1="26.63291911575756" x2="22.317208475507996" y1="142.92168965132927" y2="145.44649492493687" /><path d="M 25.769776987707644 143.4266507060508 a86.0,86.0 0 0,1 -11.730757126820373,-40.83630448921669" fill="none" id="id33" stroke="none" /><text fill="#e1ed5e" style="font-size:6.75px; font-family:Arial;" text-anchor="middle"><textPath startOffset="21.46611528233685" xlink:href="#id33">September</textPath></text><path d="M 81.87401531095188 110.60418214915194 l -7.712520523696828 4.512029214709036 a29.935400408646085,29.935400408646085 0 0,0 -0.2563724765654433,-0.4470070225922162 l 7.789044996414648 -4.378602346258513" fill="#ff6108" stroke="none" /><path d="M 81.69416730710424 110.29060199501025 l -20.956099878748567 11.780446529677679 a45.040321182685574,45.040321182685574 0 0,0 -0.37409974000671115,-0.6790996927271098 l 21.155776028206795 -11.417976318552748" fill="#d9ff1c" stroke="none" /><path d="M 81.51974371655577 109.97397251340807 l -47.24238615940608 25.497171348421784 a74.683785231718,74.683785231718 0 0,0 -0.6008399138652406,-1.1365626845995043 l 47.67427858149621 -24.680193648736154" fill="#41ffd0" stroke="none" /><path d="M 81.02952815118164 109.00673069616217 l -24.334140670419867 11.553273607933507 a47.93749307614863,47.93749307614863 0 0,0 -0.3474906310121371,-0.7484639049823477 l 24.52940591827183 -11.132689635672332" fill="#b7ff1f" stroke="none" /><path d="M 80.58989483394504 108.01547362559985 l -24.51029213125589 10.121614409251515 a47.51794672686919,47.51794672686919 0 0,0 -0.3056928751741307,-0.7587046464919589 l 24.68088762068741 -9.69821039491675" fill="#bcff1f" stroke="none" /><path d="M 80.45479744820244 107.68017299344265 l -49.64626241237038 19.508208359282868 a74.3415557038519,74.3415557038519 0 0,0 -0.4577518293536116,-1.195045581456211 l 49.9747085213175 -18.6507392109935" fill="#41ffcd" stroke="none" /><path d="M 79.0235259727143 100.99374915477108 l -27.765420362454524 1.3153718294677188 a48.796560415878105,48.796560415878105 0 0,0 -0.032526084286657736,-0.8393537090319676 l 27.78394857959238 -0.8372408734217544" fill="#adff20" stroke="none" /><line stroke="#e1ed5e" stroke-width="0.3" x1="15.007084014347285" x2="10.007500721073583" y1="101.09737516637583" y2="101.16192664675087" /><path d="M 14.007167355692545 101.11028546245083 a86.0,86.0 0 0,1 10.666146001902534,-42.60595125391555" fill="none" id="id34" stroke="none" /><text fill="#e1ed5e" style="font-size:6.75px; font-family:Arial;" text-anchor="middle"><textPath startOffset="22.20632615414155" xlink:href="#id34">October</textPath></text><line stroke="#e1ed5e" stroke-width="0.3" x1="26.266209847984243" x2="21.928928074336255" y1="57.711370442889674" y2="55.22380399835377" /><path d="M 25.398753493254645 57.213857153982495 a86.0,86.0 0 0,1 29.58750427330803,-30.492523968695096" fill="none" id="id35" stroke="none" /><text fill="#e1ed5e" style="font-size:6.75px; font-family:Arial;" text-anchor="middle"><textPath startOffset="21.46611528233685" xlink:href="#id35">November</textPath></text><line stroke="#e1ed5e" stroke-width="0.3" x1="56.76296977257108" x2="54.21961505331056" y1="26.818313649435495" y2="22.513508569990535" /><path d="M 56.25429882871898 25.957352633546506 a86.0,86.0 0 0,1 42.26535254187918,-11.944610805530505" fill="none" id="id36" stroke="none" /><text fill="#e1ed5e" style="font-size:6.75px; font-family:Arial;" text-anchor="middle"><textPath startOffset="22.20632615414155" xlink:href="#id36">December</textPath></text></svg>