<?xml version="1.0" encoding="utf-8" ?>
<svg baseProfile="full" height="200mm" version="1.1" viewBox="0,0,200,200" width="200mm" xmlns="http://www.w3.org/2000/svg" xmlns:ev="http://www.w3.org/2001/xml-events" xmlns:xlink="http://www.w3.org/1999/xlink"><defs /><rect fill="#1a1a1a" height="200" width="200" x="0" y="0" /><text alignment-baseline="middle" fill="#e1ed5e" style="dominant-baseline: central; font-size:9.0px; font-family:Arial;" text-anchor="middle" x="100.0" y="100.0">2022</text><line stroke="#e1ed5e" stroke-width="0.3" x1="100.0" x2="100.0" y1="15.0" y2="10.0" /><path d="M 100.0 14.0 a86.0,86.0 0 0,1 42.46469731375804,11.215312516191453" fill="none" id="id61" stroke="none" /><text fill="#e1ed5e" style="font-size:6.75px; font-family:Arial;" text-anchor="middle"><textPath startOffset="22.20632615414155" xlink:href="#id61">January</textPath></text><line stroke="#e1ed5e" stroke-width="0.3" x1="143.23703022742887" x2="145.7803849466894" y1="26.81831364943548" y2="22.513508569990506" /><path d="M 143.74570117128098 25.957352633546492 a86.0,86.0 0 0,1 28.547481713284135,27.462654790039103" fill="none" id="id62" stroke="none" /><text fill="#e1ed5e" style="font-size:6.75px; font-family:Arial;" text-anchor="middle"><textPath startOffset="19.985693538727396" xlink:href="#id62">February</textPath></text><line stroke="#e1ed5e" stroke-width="0.3" x1="172.23445277983987" x2="176.4835382374775" y1="55.19839476539836" y2="52.563006222186495" /><path d="M 173.08426987136738 54.67131705675599 a86.0,86.0 0 0,1 12.851231095245387,41.99856678651699" fill="none" id="id63" stroke="none" /><text fill="#e1ed5e" style="font-size:6.75px; font-family:Arial;" text-anchor="middle"><textPath startOffset="22.20632615414155" xlink:href="#id63">March</textPath></text><line stroke="#e1ed5e" stroke-width="0.3" x1="184.98032266829074" x2="189.97916517819016" y1="98.17113171792111" y2="98.06355123074" /><path d="M 185.9800911702706 98.14961562048488 a86.0,86.0 0 0,1 -9.607161424134198,41.387399972396054" fill="none" id="id64" stroke="none" /><text fill="#e1ed5e" style="font-size:6.75px; font-family:Arial;" text-anchor="middle"><textPath startOffset="21.466115282336823" xlink:href="#id64">April</textPath></text><line stroke="#e1ed5e" stroke-width="0.3" x1="174.80103733775053" x2="179.2010983576182" y1="140.37084112569926" y2="142.7455964860345" /><path d="M 175.68104954172406 140.8457921977663 a86.0,86.0 0 0,1 -30.038265399797805,32.042727171017184" fill="none" id="id65" stroke="none" /><text fill="#e1ed5e" style="font-size:6.75px; font-family:Arial;" text-anchor="middle"><textPath startOffset="22.206326154141568" xlink:href="#id65">May</textPath></text><line stroke="#e1ed5e" stroke-width="0.3" x1="143.8653032363475" x2="146.44561519142675" y1="172.8068346515853" y2="177.08958963109032" /><path d="M 144.38136562736335 173.6633856474863 a86.0,86.0 0 0,1 -40.68145358897372,12.25698825130547" fill="none" id="id66" stroke="none" /><text fill="#e1ed5e" style="font-size:6.75px; font-family:Arial;" text-anchor="middle"><textPath startOffset="21.466115282336833" xlink:href="#id66">June</textPath></text><line stroke="#e1ed5e" stroke-width="0.3" x1="102.19456741930631" x2="102.32365962044197" y1="184.97166512339345" y2="189.96999836594603" /><path d="M 102.22038585953345 185.97133177190398 a86.0,86.0 0 0,1 -42.740103519485714,-10.115201625700543" fill="none" id="id67" stroke="none" /><text fill="#e1ed5e" style="font-size:6.75px; font-family:Arial;" text-anchor="middle"><textPath startOffset="22.20632615414155" xlink:href="#id67">July</textPath></text><line stroke="#e1ed5e" stroke-width="0.3" x1="58.666819895761336" x2="56.23545636021788" y1="174.27360380694188" y2="178.64263932499728" /><path d="M 58.180547188652646 175.14741091055294 a86.0,86.0 0 0,1 -31.652253787137756,-30.449443065178592" fill="none" id="id68" stroke="none" /><text fill="#e1ed5e" style="font-size:6.75px; font-family:Arial;" text-anchor="middle"><textPath startOffset="22.20632615414155" xlink:href="#id68">August</textPath></text><path d="M 89.1626897886671 117.98757091392108 l -26.600292141187847 44.1506824009041 a72.54472134430492,72.54472134430492 0 0,0 -1.0640611004362153,-0.653633235669715 l 27.356332441556372 -43.68626069840601" fill="#36ff73" stroke="none" /><path d="M 84.43433777217949 114.09645910891817 l -40.6901290845565 36.84949168123931 a75.8960075240777,75.8960075240777 0 0,0 -0.8686158931159622,-0.9758991640496525 l 41.31840382732081 -36.14361834744879" fill="#3dffae" stroke="none" /><path d="M 84.19399662182784 113.82643327865904 l -38.32118729539134 33.52177818906659 a71.91387835046004,71.91387835046004 0 0,0 -0.8070020999572246,-0.9387257592368061 l 38.892531904919345 -32.857175330668255" fill="#35ff68" stroke="none" /><path d="M 83.95833913139862 113.55231037782056 l -40.316641222797486 34.060290871254644 a73.77816758587063,73.77816758587063 0 0,0 -0.8112225721953602,-0.9771698468944912 l 40.89695979488638 -33.36125976724639" fill="#39ff89" stroke="none" /><path d="M 83.72743513129214 113.27417163493432 l -41.99710774016872 34.25869374691242 a75.197925751675,75.197925751675 0 0,0 -0.8095668601467726,-1.010059134628388 l 42.58059251237036 -33.53070677870578" fill="#3cffa2" stroke="none" /><path d="M 83.50135304334701 112.99209946851258 l -18.69893839078365 14.7247509548464 a44.80060057277069,44.80060057277069 0 0,0 -0.47188511577300835,-0.6099751228903598 l 18.949630323774723 -14.400697837842788" fill="#ff0000" stroke="none" /><path d="M 83.28015986056508 112.70617746262583 l -38.20706198378821 29.035308103607584 a68.98779742918458,68.98779742918458 0 0,0 -0.7103730442658543,-0.9516607802978879 l 38.701196294749145 -28.373334443800385" fill="#30ff31" stroke="none" /><path d="M 82.85270091963577 112.12312394758628 l -51.44189724109269 36.36937184275885 a84.0,84.0 0 0,0 -0.8245563713514645,-1.1878349512519497 l 52.06031451960629 -35.47849562931989" fill="#4dd2ff" stroke="none" /><path d="M 82.24976979558568 111.22182372390057 l -44.47413821611886 28.116871363705382 a73.61660788524475,73.61660788524475 0 0,0 -0.667931757611329,-1.076918667371048 l 44.951534613398145 -27.34715636496907" fill="#39ff86" stroke="none" /><line stroke="#e1ed5e" stroke-width="0.3" x1="26.63291911575756" x2="22.317208475507996" y1="142.92168965132927" y2="145.44649492493687" /><path d="M 25.769776987707644 143.4266507060508 a86.0,86.0 0 0,1 -11.730757126820373,-40.83630448921669" fill="none" id="id69" stroke="none" /><text fill="#e1ed5e" style="font-size:6.75px; font-family:Arial;" text-anchor="middle"><textPath startOffset="21.46611528233685" xlink:href="#id69">September</textPath></text><path d="M 81.87401531095188 110.60418214915194 l -50.03996127847404 29.274705525601675 a78.97418484430699,78.97418484430699 0 0,0 -0.6763499761781808,-1.179273193175826 l 50.536463250804594 -28.40901248656754" fill="#43ffe0" stroke="none" /><path d="M 81.69416730710424 110.29060199501025 l -43.28845741412492 24.334554658067464 a70.65945122230994,70.65945122230994 0 0,0 -0.5868892946847966,-1.0653745433721116 l 43.70092311826124 -23.58580959629753" fill="#33ff51" stroke="none" /><path d="M 81.51974371655577 109.97397251340807 l -22.004417068776544 11.875996071232018 a46.00467262774266,46.00467262774266 0 0,0 -0.3701130500186839,-0.7001144098907067 l 22.205582627020114 -11.495466646255187" fill="#ff1c02" stroke="none" /><path d="M 81.18737489456691 109.33194174019688 l -33.40073054540663 16.568324185641266 a58.28428847768675,58.28428847768675 0 0,0 -0.4380945298443387,-0.902604490792811 l 33.68097833186569 -15.990930738883172" fill="#e4ff1a" stroke="none" /><path d="M 81.02952815118164 109.00673069616217 l -32.80505328332746 15.575062273139237 a57.3146538704986,57.3146538704986 0 0,0 -0.41546405457758856,-0.8948726121426854 l 33.06829195474488 -15.008069593717725" fill="#f6ff19" stroke="none" /><path d="M 80.87730276802145 108.67885076344099 l -35.72859161688566 16.21544862993141 a60.236118987434736,60.236118987434736 0 0,0 -0.42038763137123764,-0.9478631296486533 l 36.00242033298818 -15.59803716379006" fill="#c0ff1e" stroke="none" /><path d="M 80.58989483394504 108.01547362559985 l -31.048250327295698 12.82148805946124 a54.591433497922125,54.591433497922125 0 0,0 -0.3511980928338546,-0.8716448648676542 l 31.26435103438694 -12.28514382675078" fill="#ffd313" stroke="none" /><path d="M 80.45479744820244 107.68017299344265 l -26.99399872127329 10.607133869026166 a50.003228369951266,50.003228369951266 0 0,0 -0.307890641286992,-0.8038053085692952 l 27.17258364215379 -10.140904993623714" fill="#ff740a" stroke="none" /><path d="M 80.20201598880116 107.00284435728193 l -32.24569594460864 11.40578706218774 a55.2034630623877,55.2034630623877 0 0,0 -0.3091634961820761,-0.8985738361298016 l 32.437250271733944 -10.849040522968641" fill="#ffdf14" stroke="none" /><path d="M 80.0844068197444 106.66101706037122 l -32.31754062314819 10.809002146792565 a55.0772352067799,55.0772352067799 0 0,0 -0.2929787602475222,-0.9016959071558184 l 32.498811634411965 -10.251107339658944" fill="#ffdc14" stroke="none" /><path d="M 79.86692584326677 105.97154293290107 l -34.32420359797031 10.180683477707674 a56.802196422959696,56.802196422959696 0 0,0 -0.2699655925739609,-0.939785643908425 l 34.494361827430374 -9.588340358294653" fill="#fffe18" stroke="none" /><path d="M 79.67330655649465 105.27499134158121 l -33.2841770042758 8.637594992869314 a55.3866905373693,55.3866905373693 0 0,0 -0.231539274658189,-0.9248843066365392 l 33.42792759322905 -8.063382846835383" fill="#ffe315" stroke="none" /><path d="M 79.58551787078972 104.9243191809786 l -35.34365193135061 8.525488034905832 a57.357360713860764,57.357360713860764 0 0,0 -0.2232551525937137,-0.9617773542435205 l 35.485167649874874 -7.915842023313737" fill="#f5ff19" stroke="none" /><path d="M 79.50377843672027 104.57218783832718 l -41.98428386653671 9.365630221297154 a64.01621928096435,64.01621928096435 0 0,0 -0.2306594651962456,-1.0775642309069249 l 42.13927737045739 -8.641552170974064" fill="#7eff26" stroke="none" /><path d="M 79.4281124754447 104.21870165774334 l -35.52299792201913 7.284743805970956 a57.26225135987019,57.26225135987019 0 0,0 -0.18970184119382877,-0.9672856012903945 l 35.64312969618862 -6.672194477612607" fill="#f7ff18" stroke="none" /><path d="M 79.35854240842038 103.8639653848113 l -41.154564406796496 7.7039042223315874 a62.86941976884823,62.86941976884823 0 0,0 -0.18996611201925526,-1.0654308403817 l 41.28107696115494 -6.994354631216673" fill="#91ff23" stroke="none" /><path d="M 79.23777060512086 103.15116336523772 l -36.371147561632384 5.520188876062576 a57.78767266595486,57.78767266595486 0 0,0 -0.14079814816646297,-0.9847419203441135 l 36.46077976081544 -4.893301483738063" fill="#edff1a" stroke="none" /><path d="M 79.18660465613746 102.79330883721812 l -33.87501814987405 4.54627349337647 a55.178728140919375,55.178728140919375 0 0,0 -0.11823616609618294,-0.9424585773880726 l 33.94825582521708 -3.9624971617009885" fill="#ffde14" stroke="none" /><path d="M 79.10278846688536 102.07522291339032 l -38.844553015900466 3.8575054069420487 a60.03562023293199,60.03562023293199 0 0,0 -0.09327077846931384,-1.0292352682802752 l 38.90519839064686 -3.1882887501132076" fill="#c4ff1e" stroke="none" /><path d="M 79.07016306316243 101.71520430193888 l -29.840385967847872 2.445425568198562 a50.94041985209512,50.94041985209512 0 0,0 -0.06409624740837917,-0.8745423711816191 l 29.878058773920586 -1.9314100605201825" fill="#ff880c" stroke="none" /><path d="M 79.04373962182676 101.35467743843564 l -42.643362835684535 2.756598767626231 a63.73236748299256,63.73236748299256 0 0,0 -0.061345891114671446,-1.0953720956912223 l 42.68449507768674 -2.0221549555995706" fill="#83ff25" stroke="none" /><path d="M 79.0095281055655 100.63252640178507 l -27.547171662056897 0.830105843183859 a48.55967601931704,48.55967601931704 0 0,0 -0.01798543410069498,-0.8357124502530017 l 27.5573791588426 -0.3558035771407286" fill="#ff5507" stroke="none" /><line stroke="#e1ed5e" stroke-width="0.3" x1="15.007084014347285" x2="10.007500721073583" y1="101.09737516637583" y2="101.16192664675087" /><path d="M 14.007167355692545 101.11028546245083 a86.0,86.0 0 0,1 10.666146001902534,-42.60595125391555" fill="none" id="id70" stroke="none" /><text fill="#e1ed5e" style="font-size:6.75px; font-family:Arial;" text-anchor="middle"><textPath startOffset="22.20632615414155" xlink:href="#id70">October</textPath></text><path d="M 79.00175016825051 100.2711162175752 l -49.199581761171665 0.6352341085685393 a70.20368246225992,70.20368246225992 0 0,0 -0.005200764718733692,-1.20847456215742 l 49.203226823179904 0.21174993179255602" fill="#32ff48" stroke="none" /><path d="M 79.00019446554 99.90962569577889 l -48.60113993328448 -0.20915880380969606 a69.60158999682943,69.60158999682943 0 0,0 0.015468101195756354,-1.1980214840568948 l 48.59033882497101 1.0457165459270628" fill="#31ff3d" stroke="none" /><path d="M 79.08570108090925 98.10471618934814 l -50.0543485428788 -4.535996966144908 a71.25945758291536,71.25945758291536 0 0,0 0.12121869748509724,-1.2206557410144947 l 49.96885271971147 5.3969282378638335" fill="#34ff5c" stroke="none" /><line stroke="#e1ed5e" stroke-width="0.3" x1="26.266209847984243" x2="21.928928074336255" y1="57.711370442889674" y2="55.22380399835377" /><path d="M 25.398753493254645 57.213857153982495 a86.0,86.0 0 0,1 29.58750427330803,-30.492523968695096" fill="none" id="id71" stroke="none" /><text fill="#e1ed5e" style="font-size:6.75px; font-family:Arial;" text-anchor="middle"><textPath startOffset="21.46611528233685" xlink:href="#id71">November</textPath></text><line stroke="#e1ed5e" stroke-width="0.3" x1="56.762969772571076" x2="54.21961505331055" y1="26.818313649435495" y2="22.513508569990535" /><path d="M 56.25429882871897 25.957352633546506 a86.0,86.0 0 0,1 42.265352541879196,-11.944610805530505" fill="none" id="id72" stroke="none" /><text fill="#e1ed5e" style="font-size:6.75px; font-family:Arial;" text-anchor="middle"><textPath startOffset="22.20632615414155" xlink:href="#id72">December</textPath></text></svg>