<?xml version="1.0" encoding="utf-8" ?>
<svg baseProfile="full" height="200mm" version="1.1" viewBox="0,0,200,200" width="200mm" xmlns="http://www.w3.org/2000/svg" xmlns:ev="http://www.w3.org/2001/xml-events" xmlns:xlink="http://www.w3.org/1999/xlink"><defs /><rect fill="#1a1a1a" height="200" width="200" x="0" y="0" /><text alignment-baseline="middle" fill="#e1ed5e" style="dominant-baseline: central; font-size:9.0px; font-family:Arial;" text-anchor="middle" x="100.0" y="100.0">2024</text><line stroke="#e1ed5e" stroke-width="0.3" x1="100.0" x2="100.0" y1="15.0" y2="10.0" /><path d="M 100.0 14.0 a86.0,86.0 0 0,1 42.35913384403234,11.155469271406648" fill="none" id="id85" stroke="none" /><text fill="#e1ed5e" style="font-size:6.75px; font-family:Arial;" text-anchor="middle"><textPath startOffset="22.145653131862478" xlink:href="#id85">January</textPath></text><path d="M 100.0 79.0 l 0.0 -57.464769610173505 a78.4647696101735,78.4647696101735 0 0,0 1.34695210925538,0.011561963876593912 l -0.9864591844065254 57.456302044491345" fill="#46fff3" stroke="none" /><path d="M 100.36049292484886 79.00309439819443 l 0.11726326670966374 -6.8299974061751145 a27.831003970287107,27.831003970287107 0 0,0 0.47761539461599095,0.01230167834686771 l -0.23449197539639605 6.826978010478202" fill="#ff0c01" stroke="none" /><path d="M 103.58742460773223 79.30868818359171 l 3.1648964552945524 -18.25428171563484 a39.52661249463853,39.52661249463853 0 0,0 0.6675579310588202,0.12165129256360832 l -3.4777891199044264 18.197262249139865" fill="#ffba11" stroke="none" /><path d="M 106.04205211174951 79.88797359093562 l 2.014221255497227 -6.704687469590387 a28.00070863063013,28.00070863063013 0 0,0 0.4591574430090321,0.14224814954988094 l -2.129019331377889 6.669122732233859" fill="#ff0e01" stroke="none" /><line stroke="#e1ed5e" stroke-width="0.3" x1="143.13028292997686" x2="145.6673583964461" y1="26.7553504044142" y2="22.446841604673864" /><path d="M 143.63769802327073 25.89364864446614 a86.0,86.0 0 0,1 29.32050498858742,28.57503671076993" fill="none" id="id86" stroke="none" /><text fill="#e1ed5e" style="font-size:6.75px; font-family:Arial;" text-anchor="middle"><textPath startOffset="20.669276256404974" xlink:href="#id86">February</textPath></text><line stroke="#e1ed5e" stroke-width="0.3" x1="172.87174338648825" x2="177.1583165268699" y1="56.24261187166439" y2="53.66864786411523" /><path d="M 173.72905801456457 55.72781907015455 a86.0,86.0 0 0,1 12.242430191666344,42.057860355516425" fill="none" id="id87" stroke="none" /><text fill="#e1ed5e" style="font-size:6.75px; font-family:Arial;" text-anchor="middle"><textPath startOffset="22.145653131862474" xlink:href="#id87">March</textPath></text><path d="M 120.592083275326 95.88100663000786 l 56.993631847514806 -11.400322569255424 a79.12264124980152,79.12264124980152 0 0,0 0.2549772618001344,1.3341487768735227 l -57.1809354015971 10.420271227348588" fill="#46fffa" stroke="none" /><path d="M 120.77682067341334 96.94652285012252 l 62.330462020240034 -9.160431449632455 a84.0,84.0 0 0,0 0.19742193377914985,1.4284467671996575 l -62.478528470574396 8.089096374232712" fill="#4dd2ff" stroke="none" /><path d="M 120.96210409425399 98.7389718711861 l 20.626322607138803 -1.2408283483680498 a41.66361147727761,41.66361147727761 0 0,0 0.036819543167484224,0.7142893010291868 l -20.64458373976286 0.8865672539621325" fill="#ffd814" stroke="none" /><line stroke="#e1ed5e" stroke-width="0.3" x1="184.99686870605535" x2="189.99668451229388" y1="99.2704041080226" y2="99.22748670261217" /><path d="M 185.99683186730306 99.26182062694052 a86.0,86.0 0 0,1 -10.086455211305974,41.156179273409016" fill="none" id="id88" stroke="none" /><text fill="#e1ed5e" style="font-size:6.75px; font-family:Arial;" text-anchor="middle"><textPath startOffset="21.40746469413373" xlink:href="#id88">April</textPath></text><path d="M 120.99922638620191 99.81974689727618 l 35.94690497644119 -0.30856094582511356 a56.948229264354325,56.948229264354325 0 0,0 0.0,0.9776280970978766 l -35.94690497644119 -0.30856094582510923" fill="#67ff28" stroke="none" /><path d="M 120.99922638620191 100.18025310272382 l 28.476680354290085 0.24443805189452958 a49.47772943831065,49.47772943831065 0 0,0 -0.014580776808169788,0.8492571508041408 l -28.468288145883246 -0.7332421186677414" fill="#c0ff1e" stroke="none" /><path d="M 120.98066250479742 100.90099992219065 l 28.44518200805607 1.2215585075112327 a49.47139941517996,49.47139941517996 0 0,0 -0.04371954954784668,0.8481475814566999 l -28.420020869051648 -1.7096778823446632" fill="#c0ff1e" stroke="none" /><path d="M 120.96210409425399 101.26102812881392 l 28.75013440009679 1.729536692628127 a49.8021097351353,49.8021097351353 0 0,0 -0.058662234308092726,0.8529360122489714 l -28.71620820462363 -2.222816129031442" fill="#bcff1f" stroke="none" /><path d="M 120.86939407059847 102.33845913500097 l 28.46640182640729 3.189719699881147 a49.64455174559892,49.64455174559892 0 0,0 -0.10216828357233133,0.8460999512406137 l -28.40745145657529 -3.677913328045169" fill="#beff1f" stroke="none" /><path d="M 120.82617615685814 102.69636545807757 l 28.493394226377692 3.6890403402302834 a49.73121182915228,49.73121182915228 0 0,0 -0.11688133343443141,0.8456951043604054 l -28.42586837638805 -4.177623752790774" fill="#bdff1f" stroke="none" /><path d="M 120.77682067341334 103.0534771498775 l 6.02361404855548 0.8852638305956688 a27.088318179572735,27.088318179572735 0 0,0 -0.07156283205173984,0.4594847174840449 l -6.007529724365472 -0.9885367300111644" fill="#ff0000" stroke="none" /><path d="M 120.7213421655516 103.40968896794604 l 28.596423726036807 4.70553064190388 a49.980984602682796,49.980984602682796 0 0,0 -0.14657562184162126,0.8454092358267498 l -28.511433286702953 -5.195732910651218" fill="#baff1f" stroke="none" /><line stroke="#e1ed5e" stroke-width="0.3" x1="174.33088141563837" x2="178.70328620479359" y1="141.23008692659167" y2="143.65538615756765" /><path d="M 175.20536237346943 141.71514677278685 a86.0,86.0 0 0,1 -30.301960400862466,31.631185727798858" fill="none" id="id89" stroke="none" /><text fill="#e1ed5e" style="font-size:6.75px; font-family:Arial;" text-anchor="middle"><textPath startOffset="22.145653131862474" xlink:href="#id89">May</textPath></text><line stroke="#e1ed5e" stroke-width="0.3" x1="143.1302829299769" x2="145.6673583964461" y1="173.24464959558577" y2="177.55315839532614" /><path d="M 143.63769802327073 174.10635135553383 a86.0,86.0 0 0,1 -40.685524379131806,11.842963189579606" fill="none" id="id90" stroke="none" /><text fill="#e1ed5e" style="font-size:6.75px; font-family:Arial;" text-anchor="middle"><textPath startOffset="21.407464694133747" xlink:href="#id90">June</textPath></text><line stroke="#e1ed5e" stroke-width="0.3" x1="101.45913802915013" x2="101.54496967792366" y1="184.9874750549273" y2="189.98673829345242" /><path d="M 101.47630435890484 185.9873277026323 a86.0,86.0 0 0,1 -42.54439059252881,-10.42667462771756" fill="none" id="id91" stroke="none" /><text fill="#e1ed5e" style="font-size:6.75px; font-family:Arial;" text-anchor="middle"><textPath startOffset="22.145653131862474" xlink:href="#id91">July</textPath></text><line stroke="#e1ed5e" stroke-width="0.3" x1="58.13341422392154" x2="55.67067388415222" y1="173.97424548756322" y2="178.32567169271397" /><path d="M 57.64086615596768 174.84453072859336 a86.0,86.0 0 0,1 -31.369924170532247,-30.572349798747897" fill="none" id="id92" stroke="none" /><text fill="#e1ed5e" style="font-size:6.75px; font-family:Arial;" text-anchor="middle"><textPath startOffset="22.145653131862474" xlink:href="#id92">August</textPath></text><line stroke="#e1ed5e" stroke-width="0.3" x1="26.387840678322732" x2="22.057713659400548" y1="142.50000000000003" y2="145.00000000000006" /><path d="M 25.521815274538298 143.00000000000003 a86.0,86.0 0 0,1 -11.493303480769221,-40.785679425670985" fill="none" id="id93" stroke="none" /><text fill="#e1ed5e" style="font-size:6.75px; font-family:Arial;" text-anchor="middle"><textPath startOffset="21.40746469413373" xlink:href="#id93">September</textPath></text><line stroke="#e1ed5e" stroke-width="0.3" x1="15.003131293944662" x2="10.003315487706104" y1="100.72959589197737" y2="100.7725132973878" /><path d="M 14.003168132696942 100.73817937305945 a86.0,86.0 0 0,1 10.791469493833604,-42.45332614584628" fill="none" id="id94" stroke="none" /><text fill="#e1ed5e" style="font-size:6.75px; font-family:Arial;" text-anchor="middle"><textPath startOffset="22.145653131862435" xlink:href="#id94">October</textPath></text><line stroke="#e1ed5e" stroke-width="0.3" x1="26.387840678322718" x2="22.05771365940052" y1="57.49999999999999" y2="54.99999999999999" /><path d="M 25.521815274538284 56.99999999999999 a86.0,86.0 0 0,1 29.574782752854787,-30.34633250058573" fill="none" id="id95" stroke="none" /><text fill="#e1ed5e" style="font-size:6.75px; font-family:Arial;" text-anchor="middle"><textPath startOffset="21.40746469413373" xlink:href="#id95">November</textPath></text><line stroke="#e1ed5e" stroke-width="0.3" x1="56.869717070023135" x2="54.33264160355391" y1="26.7553504044142" y2="22.446841604673864" /><path d="M 56.362301976729285 25.89364864446614 a86.0,86.0 0 0,1 42.16139366436587,-11.88097634709845" fill="none" id="id96" stroke="none" /><text fill="#e1ed5e" style="font-size:6.75px; font-family:Arial;" text-anchor="middle"><textPath startOffset="22.145653131862474" xlink:href="#id96">December</textPath></text></svg>