<?xml version="1.0" encoding="utf-8" ?>
<svg baseProfile="full" height="200mm" version="1.1" viewBox="0,0,200,200" width="200mm" xmlns="http://www.w3.org/2000/svg" xmlns:ev="http://www.w3.org/2001/xml-events" xmlns:xlink="http://www.w3.org/1999/xlink"><defs /><rect fill="#1a1a1a" height="200" width="200" x="0" y="0" /><text alignment-baseline="middle" fill="#e1ed5e" style="dominant-baseline: central; font-size:9.0px; font-family:Arial;" text-anchor="middle" x="100.0" y="100.0">2017</text><line stroke="#e1ed5e" stroke-width="0.3" x1="100.0" x2="100.0" y1="15.0" y2="10.0" /><path d="M 100.0 14.0 a86.0,86.0 0 0,1 42.46469731375804,11.215312516191453" fill="none" id="id1" stroke="none" /><text fill="#e1ed5e" style="font-size:6.75px; font-family:Arial;" text-anchor="middle"><textPath startOffset="22.20632615414155" xlink:href="#id1">January</textPath></text><line stroke="#e1ed5e" stroke-width="0.3" x1="143.23703022742887" x2="145.7803849466894" y1="26.81831364943548" y2="22.513508569990506" /><path d="M 143.74570117128098 25.957352633546492 a86.0,86.0 0 0,1 28.547481713284135,27.462654790039103" fill="none" id="id2" stroke="none" /><text fill="#e1ed5e" style="font-size:6.75px; font-family:Arial;" text-anchor="middle"><textPath startOffset="19.985693538727396" xlink:href="#id2">February</textPath></text><line stroke="#e1ed5e" stroke-width="0.3" x1="172.23445277983987" x2="176.4835382374775" y1="55.19839476539836" y2="52.563006222186495" /><path d="M 173.08426987136738 54.67131705675599 a86.0,86.0 0 0,1 12.851231095245387,41.99856678651699" fill="none" id="id3" stroke="none" /><text fill="#e1ed5e" style="font-size:6.75px; font-family:Arial;" text-anchor="middle"><textPath startOffset="22.20632615414155" xlink:href="#id3">March</textPath></text><line stroke="#e1ed5e" stroke-width="0.3" x1="184.98032266829074" x2="189.97916517819016" y1="98.17113171792111" y2="98.06355123074" /><path d="M 185.9800911702706 98.14961562048488 a86.0,86.0 0 0,1 -9.607161424134198,41.387399972396054" fill="none" id="id4" stroke="none" /><text fill="#e1ed5e" style="font-size:6.75px; font-family:Arial;" text-anchor="middle"><textPath startOffset="21.466115282336823" xlink:href="#id4">April</textPath></text><line stroke="#e1ed5e" stroke-width="0.3" x1="174.80103733775053" x2="179.2010983576182" y1="140.37084112569926" y2="142.7455964860345" /><path d="M 175.68104954172406 140.8457921977663 a86.0,86.0 0 0,1 -30.038265399797805,32.042727171017184" fill="none" id="id5" stroke="none" /><text fill="#e1ed5e" style="font-size:6.75px; font-family:Arial;" text-anchor="middle"><textPath startOffset="22.206326154141568" xlink:href="#id5">May</textPath></text><line stroke="#e1ed5e" stroke-width="0.3" x1="143.8653032363475" x2="146.44561519142675" y1="172.8068346515853" y2="177.08958963109032" /><path d="M 144.38136562736335 173.6633856474863 a86.0,86.0 0 0,1 -40.68145358897372,12.25698825130547" fill="none" id="id6" stroke="none" /><text fill="#e1ed5e" style="font-size:6.75px; font-family:Arial;" text-anchor="middle"><textPath startOffset="21.466115282336833" xlink:href="#id6">June</textPath></text><line stroke="#e1ed5e" stroke-width="0.3" x1="102.19456741930631" x2="102.32365962044197" y1="184.97166512339345" y2="189.96999836594603" /><path d="M 102.22038585953345 185.97133177190398 a86.0,86.0 0 0,1 -42.740103519485714,-10.115201625700543" fill="none" id="id7" stroke="none" /><text fill="#e1ed5e" style="font-size:6.75px; font-family:Arial;" text-anchor="middle"><textPath startOffset="22.20632615414155" xlink:href="#id7">July</textPath></text><path d="M 91.40352486487194 119.15986991738527 l -25.789425405384158 57.479609752155824 a84.0,84.0 0 0,0 -1.3141280169303222,-0.6032517186637025 l 26.7750214180819 -57.02717096315804" fill="#4dd2ff" stroke="none" /><line stroke="#e1ed5e" stroke-width="0.3" x1="58.666819895761336" x2="56.23545636021788" y1="174.27360380694188" y2="178.64263932499728" /><path d="M 58.180547188652646 175.14741091055294 a86.0,86.0 0 0,1 -31.652253787137756,-30.449443065178592" fill="none" id="id8" stroke="none" /><text fill="#e1ed5e" style="font-size:6.75px; font-family:Arial;" text-anchor="middle"><textPath startOffset="22.20632615414155" xlink:href="#id8">August</textPath></text><path d="M 82.6465618267979 111.8261652097733 l -5.651927993051785 3.8517228420354717 a27.839594936142067,27.839594936142067 0 0,0 -0.2664605775613196,-0.39832240960824683 l 5.717391676023836 -3.7538635182214017" fill="#ff5507" stroke="none" /><path d="M 82.44556493220864 111.52570212397912 l -5.94570344980437 3.9037660064433037 a28.11271949018643,28.11271949018643 0 0,0 -0.2621111311154211,-0.40680229621595093 l 6.012019444296837 -3.8008421103059047" fill="#ff5808" stroke="none" /><path d="M 82.24976979558568 111.22182372390057 l -6.090674174975936 3.850568199070219 a28.20577458441559,28.20577458441559 0 0,0 -0.25591416304219217,-0.4126151156674695 l 6.156052977686084 -3.7451567520374853" fill="#ff5a08" stroke="none" /><path d="M 82.05923443525364 110.91462005526583 l -6.044221305836082 3.677121739597079 a28.07487353114812,28.07487353114812 0 0,0 -0.247619213824864,-0.41502404540104115 l 6.106621395359178 -3.572535600309927" fill="#ff5808" stroke="none" /><line stroke="#e1ed5e" stroke-width="0.3" x1="26.63291911575756" x2="22.317208475507996" y1="142.92168965132927" y2="145.44649492493687" /><path d="M 25.769776987707644 143.4266507060508 a86.0,86.0 0 0,1 -11.730757126820373,-40.83630448921669" fill="none" id="id9" stroke="none" /><text fill="#e1ed5e" style="font-size:6.75px; font-family:Arial;" text-anchor="middle"><textPath startOffset="21.46611528233685" xlink:href="#id9">September</textPath></text><path d="M 80.73074385275274 108.34839909993369 l -2.824198288556787 1.223583010680459 a24.077864739898903,24.077864739898903 0 0,0 -0.16149255350471992,-0.3817206923560434 l 2.8448418232538137 -1.1747877926582568" fill="#ff2003" stroke="none" /><path d="M 80.32549172779594 107.34259656027581 l -8.038885791952278 3.0001408089995634 a29.580473742741525,29.580473742741525 0 0,0 -0.1739271835809793,-0.47857291046186384 l 8.089337236538482 -2.8613201015315823" fill="#ff6c0a" stroke="none" /><path d="M 80.20201598880116 107.00284435728193 l -6.326290212925478 2.2377038841456485 a27.710384976383786,27.710384976383786 0 0,0 -0.1551902548245592,-0.4510555234682013 l 6.363871298693266 -2.12847565758815" fill="#ff5307" stroke="none" /><path d="M 80.0844068197444 106.66101706037122 l -6.553522064463875 2.1919067075637493 a27.91036225273884,27.91036225273884 0 0,0 -0.14846684478926192,-0.45693396402426695 l 6.590281160269386 -2.078773843561679" fill="#ff5607" stroke="none" /><path d="M 79.86692584326677 105.97154293290107 l -7.599527767694711 2.254047542927558 a28.926761798978237,28.926761798978237 0 0,0 -0.13748113421808544,-0.478589864043534 l 7.6372015387989 -2.122900203379428" fill="#ff6409" stroke="none" /><path d="M 79.76711848015287 105.62410040840567 l -6.772933530053747 1.8826610631369707 a28.029725548069308,28.029725548069308 0 0,0 -0.12521535587031168,-0.4659729204491539 l 6.804336962265831 -1.7657972095122778" fill="#ff5708" stroke="none" /><path d="M 79.67330655649465 105.27499134158121 l -6.931583379687235 1.7988189969471449 a28.161186908141293,28.161186908141293 0 0,0 -0.11772540888366013,-0.47025448848627566 l 6.961520102865957 -1.6792366690634772" fill="#ff5908" stroke="none" /><path d="M 79.58551787078972 104.9243191809786 l -7.09473685712052 1.7113708086439672 a28.298224518090894,28.298224518090894 0 0,0 -0.11014670748946848,-0.47450913305746867 l 7.123144130540544 -1.5889930182379242" fill="#ff5b08" stroke="none" /><path d="M 79.50377843672027 104.57218783832718 l -6.936239289348527 1.5472992826787022 a28.106725726329966,28.106725726329966 0 0,0 -0.10127249620910705,-0.4731113869389443 l 6.961845824282075 -1.427674076323594" fill="#ff5808" stroke="none" /><path d="M 79.4281124754447 104.21870165774334 l -6.955242125602675 1.4263198479119927 a28.099984600990744,28.099984600990744 0 0,0 -0.09309132438446031,-0.4746706574668247 l 6.978763382962802 -1.3063854633772132" fill="#ff5808" stroke="none" /><path d="M 79.35854240842038 103.8639653848113 l -8.452957498461124 1.582346354583933 a29.59978548899071,29.59978548899071 0 0,0 -0.08943865215587225,-0.5016194589452814 l 8.478942592956185 -1.436608144905438" fill="#ff6d0a" stroke="none" /><path d="M 79.07016306316243 101.71520430193888 l -3.1599247517773814 0.25895646222223484 a24.170517763114095,24.170517763114095 0 0,0 -0.03041277419839456,-0.4149581408754694 l 3.1639140846401115 -0.20452518485000482" fill="#ff2103" stroke="none" /><path d="M 79.04373962182676 101.35467743843564 l -4.301374324615677 0.27805413020598957 a25.310352094642337,25.310352094642337 0 0,0 -0.024362598864482332,-0.4350105685935724 l 4.30552327436769 -0.20397184527697956" fill="#ff3104" stroke="none" /><path d="M 79.0235259727143 100.99374915477108 l -7.009732475918891 0.33208229915355075 a28.017594177306286,28.017594177306286 0 0,0 -0.018675550529661984,-0.48193297622719955 l 7.014410159299753 -0.2113720759123544" fill="#ff5708" stroke="none" /><path d="M 79.0095281055655 100.63252640178507 l -10.139566260135304 0.30554545864617993 a31.144168865460273,31.144168865460273 0 0,0 -0.011535113960147262,-0.5359914193680634 l 10.14332343678046 -0.13096422348798767" fill="#ff820b" stroke="none" /><line stroke="#e1ed5e" stroke-width="0.3" x1="15.007084014347285" x2="10.007500721073583" y1="101.09737516637583" y2="101.16192664675087" /><path d="M 14.007167355692545 101.11028546245083 a86.0,86.0 0 0,1 10.666146001902534,-42.60595125391555" fill="none" id="id10" stroke="none" /><text fill="#e1ed5e" style="font-size:6.75px; font-family:Arial;" text-anchor="middle"><textPath startOffset="22.20632615414155" xlink:href="#id10">October</textPath></text><path d="M 79.00175016825051 100.2711162175752 l -9.01988897119029 0.1164591430434309 a30.02064076352665,30.02064076352665 0 0,0 -0.002223961533651178,-0.5167703378222506 l 9.020557230013445 0.038820672982495044" fill="#ff720a" stroke="none" /><path d="M 79.00019446554 99.90962569577889 l -3.2408939769285716 -0.013947440500756556 a24.240923988739695,24.240923988739695 0 0,0 0.005387248557878405,-0.41724833776388187 l 3.2401737212529778 0.06973203632511041" fill="#ff2203" stroke="none" /><path d="M 79.00486145842228 99.54816195383935 l -9.567974901690079 -0.20591314873833141 a30.570190381815536,30.570190381815536 0 0,0 0.015850360639348002,-0.5259963039929172 l 9.563012846595084 0.370579600156243" fill="#ff7a0b" stroke="none" /><path d="M 79.16333360222342 97.38593545837743 l -5.8211613247470515 -0.7302939500778128 a26.8667920043454,26.8667920043454 0 0,0 0.061517278669044086,-0.45837518012956296 l 5.8077280470201735 0.8303874722720352" fill="#ff4706" stroke="none" /><path d="M 79.21141760316559 97.0276538004421 l -9.137931823813389 -1.3065391574014642 a30.230863588336945,30.230863588336945 0 0,0 0.07808791361465084,-0.5145017847440576 l 9.114088016759435 1.4636400545376138" fill="#ff750a" stroke="none" /><path d="M 79.46518482838121 95.60439243477599 l -7.950082417822272 -1.7017656174588855 a29.130179374831286,29.130179374831286 0 0,0 0.10917660116365228,-0.4894172956364761 l 7.919611429656582 1.838361082645321" fill="#ff6609" stroke="none" /><path d="M 79.54389044137918 95.25157060432595 l -8.72608673591857 -2.025566330063728 a29.958097380597167,29.958097380597167 0 0,0 0.12092685830795437,-0.5013198976632278 l 8.6899270773498 2.1754714593863524" fill="#ff720a" stroke="none" /><path d="M 79.62865764111835 94.90015583598534 l -8.968224533684733 -2.2451415691683447 a30.24498306932968,30.24498306932968 0 0,0 0.13077882881978978,-0.5039441754844072 l 8.928249372994637 2.3991821702016156" fill="#ff750a" stroke="none" /><path d="M 79.71946130924805 94.55025226153421 l -8.911698655760636 -2.3947346929826248 a30.227845207894447,30.227845207894447 0 0,0 0.13935501492363891,-0.5013341337100724 l 8.869156870270636 2.5477801301116396" fill="#ff750a" stroke="none" /><path d="M 79.91906864156998 93.8553929516997 l -6.112535844117721 -1.8703878899016602 a27.392295777286492,27.392295777286492 0 0,0 0.14184580727520438,-0.44968997192466414 l 6.079434553074313 1.9753280282527388" fill="#ff4e07" stroke="none" /><path d="M 80.02781315780177 93.51064311812611 l -4.259402556392318 -1.3839637847566557 a25.478600885870428,25.478600885870428 0 0,0 0.13911644421346764,-0.41594046112302535 l 4.234948818407078 1.4570773488020032" fill="#ff3404" stroke="none" /><path d="M 80.2630227832202 92.82701384747504 l -8.666955577962106 -3.1498213562519464 a30.221577607257302,30.221577607257302 0 0,0 0.1818985113237754,-0.4873975760976288 l 8.611452478136703 3.2985420693789163" fill="#ff750a" stroke="none" /><path d="M 80.38941819471856 92.48833698450439 l -8.624097006513974 -3.303385446138618 a30.235118005933856,30.235118005933856 0 0,0 0.19034655335584177,-0.4844112161995461 l 8.56595690327644 3.4513456672339275" fill="#ff750a" stroke="none" /><path d="M 80.65960295795067 91.81776055985345 l -8.97369206110302 -3.7964524175201144 a30.743726195147197,30.743726195147197 0 0,0 0.21038852706169794,-0.4856057275012238 l 8.907012824198643 3.9503572896079375" fill="#ff7c0b" stroke="none" /><line stroke="#e1ed5e" stroke-width="0.3" x1="26.266209847984243" x2="21.928928074336255" y1="57.711370442889674" y2="55.22380399835377" /><path d="M 25.398753493254645 57.213857153982495 a86.0,86.0 0 0,1 29.58750427330803,-30.492523968695096" fill="none" id="id11" stroke="none" /><text fill="#e1ed5e" style="font-size:6.75px; font-family:Arial;" text-anchor="middle"><textPath startOffset="21.46611528233685" xlink:href="#id11">November</textPath></text><path d="M 82.15384107792192 88.93136811851018 l -1.1986192319828228 -0.7434134764136147 a22.41044378129455,22.41044378129455 0 0,0 0.20614663306797074,-0.3260744672925181 l 1.1856450026688894 0.7639355914203483" fill="#ff0801" stroke="none" /><path d="M 83.17141714833178 87.43820079747576 l -4.7053192234238495 -3.5123144824145642 a26.871659221864046,26.871659221864046 0 0,0 0.27987992371049375,-0.36828917244711806 l 4.644163359489247 3.5927884307427087" fill="#ff4706" stroke="none" /><path d="M 83.39014120810768 87.1503855733568 l -4.5970939630145535 -3.556374900466952 a26.812148943158302,26.812148943158302 0 0,0 0.28554417626876316,-0.3626121063962244 l 4.535195706151819 3.634979400816224" fill="#ff4606" stroke="none" /><path d="M 83.6137871275137 86.86637796730984 l -4.379395713579002 -3.5101050182440883 a26.612481096201257,26.612481096201257 0 0,0 0.2895710504795469,-0.35497986862150616 l 4.318326171023063 3.584969056473677" fill="#ff4406" stroke="none" /><path d="M 84.5562425177563 85.77008943001954 l -4.30963249605352 -3.9709044304037944 a26.86012066824916,26.86012066824916 0 0,0 0.31622378880989926,-0.3373254898363471 l 4.240641385273163 4.044499337118192" fill="#ff4706" stroke="none" /><path d="M 84.80347519578584 85.50635884689758 l -3.944566763014903 -3.762119030775944 a26.450976660159938,26.450976660159938 0 0,0 0.31707886120557693,-0.3267776384911189 l 3.8792236381062124 3.8294608648171864" fill="#ff4106" stroke="none" /><path d="M 85.83668400450813 84.49514656593479 l -6.055234315207736 -6.628781042243328 a29.978117882834567,29.978117882834567 0 0,0 0.38398972966834377,-0.34474977066361706 l 5.940233597943421 6.732029821676224" fill="#ff720a" stroke="none" /><path d="M 86.10567301691215 84.25364557470407 l -3.5162801461572 -3.984978438136461 a26.314534713281287,26.314534713281287 0 0,0 0.3422220293296127,-0.29677157152276273 l 3.447164318180814 4.044915003078904" fill="#ff3f05" stroke="none" /><path d="M 86.65592168130627 83.78471172551755 l -0.5629596141870543 -0.6840901419280723 a21.885947430431855,21.885947430431855 0 0,0 0.2929554972328761,-0.23688297173975223 l 0.5511007183896778 0.693679210931961" fill="#ff0000" stroke="none" /><path d="M 87.22198572758235 83.33499621200491 l -0.6739373225773552 -0.8789447087929969 a22.107580839432472,22.107580839432472 0 0,0 0.303983285642069,-0.22895390851118103 l 0.6587078831768963 0.8904152068100323" fill="#ff0300" stroke="none" /><path d="M 87.51073957382395 83.11751280151077 l -1.1342290136929403 -1.5332058224755145 a22.90714329550133,22.90714329550133 0 0,0 0.31901434979640153,-0.23177749217106475 l 1.107669347542757 1.552502549463247" fill="#ff0f01" stroke="none" /><path d="M 88.09926311788651 82.69761687909137 l -2.6156433719209478 -3.802862308187107 a25.615555436142454,25.615555436142454 0 0,0 0.36544286470653936,-0.2467486535516563 l 2.549795812807869 3.847322874037429" fill="#ff3605" stroke="none" /><line stroke="#e1ed5e" stroke-width="0.3" x1="56.76296977257108" x2="54.21961505331056" y1="26.818313649435495" y2="22.513508569990535" /><path d="M 56.25429882871898 25.957352633546506 a86.0,86.0 0 0,1 42.26535254187918,-11.944610805530505" fill="none" id="id12" stroke="none" /><text fill="#e1ed5e" style="font-size:6.75px; font-family:Arial;" text-anchor="middle"><textPath startOffset="22.20632615414155" xlink:href="#id12">December</textPath></text><path d="M 91.90106846888425 80.62456947434976 l -1.7143602053988276 -4.101339408541507 a25.44522393788105,25.44522393788105 0 0,0 0.4055679473306979,-0.16544134892089107 l 1.6435083884797492 4.130241643645975" fill="#ff3304" stroke="none" /><path d="M 92.23578459929587 80.48803036053334 l -3.8875456180761483 -9.769650654599856 a31.5147080247407,31.5147080247407 0 0,0 0.5057612930694005,-0.1962275242378016 l 3.718801160007071 9.835120882728209" fill="#ff860c" stroke="none" /><path d="M 94.28887869178378 79.79150937346287 l -0.6759029935507808 -2.391645803420254 a23.485319799484287,23.485319799484287 0 0,0 0.38997050411124157,-0.10659366999473946 l 0.6346346002158166 2.4029260142412894" fill="#ff1702" stroke="none" /><path d="M 97.83486435360386 79.11191278185805 l -0.7942983103750386 -7.662971330204105 a28.70402748005189,28.70402748005189 0 0,0 0.4918980114943828,-0.046711643302479414 l 0.6622751717904195 7.675508518021765" fill="#ff6008" stroke="none" /><path d="M 98.19473922651362 79.07773832637324 l -0.6533045476689578 -7.571542515989546 a28.599675184074794,28.599675184074794 0 0,0 0.49083826273291176,-0.03809849594141127 l 0.522876095573712 7.58166627411942" fill="#ff5f08" stroke="none" /><path d="M 98.91598698831166 79.02799685794201 l -0.5961279999018633 -11.533070315769463 a32.548466543258016,32.548466543258016 0 0,0 0.559770337322238,-0.024104888233281982 l 0.39751683019030115 11.541622930526938" fill="#ff940d" stroke="none" /></svg>