<?xml version="1.0" encoding="utf-8" ?>
<svg baseProfile="full" height="200mm" version="1.1" viewBox="0,0,200,200" width="200mm" xmlns="http://www.w3.org/2000/svg" xmlns:ev="http://www.w3.org/2001/xml-events" xmlns:xlink="http://www.w3.org/1999/xlink"><defs /><rect fill="#1a1a1a" height="200" width="200" x="0" y="0" /><text alignment-baseline="middle" fill="#e1ed5e" style="dominant-baseline: central; font-size:9.0px; font-family:Arial;" text-anchor="middle" x="100.0" y="100.0">2023</text><line stroke="#e1ed5e" stroke-width="0.3" x1="100.0" x2="100.0" y1="15.0" y2="10.0" /><path d="M 100.0 14.0 a86.0,86.0 0 0,1 42.46469731375804,11.215312516191453" fill="none" id="id73" stroke="none" /><text fill="#e1ed5e" style="font-size:6.75px; font-family:Arial;" text-anchor="middle"><textPath startOffset="22.20632615414155" xlink:href="#id73">January</textPath></text><line stroke="#e1ed5e" stroke-width="0.3" x1="143.23703022742887" x2="145.7803849466894" y1="26.81831364943548" y2="22.513508569990506" /><path d="M 143.74570117128098 25.957352633546492 a86.0,86.0 0 0,1 28.547481713284135,27.462654790039103" fill="none" id="id74" stroke="none" /><text fill="#e1ed5e" style="font-size:6.75px; font-family:Arial;" text-anchor="middle"><textPath startOffset="19.985693538727396" xlink:href="#id74">February</textPath></text><line stroke="#e1ed5e" stroke-width="0.3" x1="172.23445277983987" x2="176.4835382374775" y1="55.19839476539836" y2="52.563006222186495" /><path d="M 173.08426987136738 54.67131705675599 a86.0,86.0 0 0,1 12.851231095245387,41.99856678651699" fill="none" id="id75" stroke="none" /><text fill="#e1ed5e" style="font-size:6.75px; font-family:Arial;" text-anchor="middle"><textPath startOffset="22.20632615414155" xlink:href="#id75">March</textPath></text><path d="M 120.08093135843002 93.85539295169968 l 10.514378851456462 -3.2173172272727832 a31.99560333828304,31.99560333828304 0 0,0 0.15661711150136326,0.5280350414458823 l -10.568201860069527 3.035852799080371" fill="#ff870c" stroke="none" /><line stroke="#e1ed5e" stroke-width="0.3" x1="184.98032266829074" x2="189.97916517819016" y1="98.17113171792111" y2="98.06355123074" /><path d="M 185.9800911702706 98.14961562048488 a86.0,86.0 0 0,1 -9.607161424134198,41.387399972396054" fill="none" id="id76" stroke="none" /><text fill="#e1ed5e" style="font-size:6.75px; font-family:Arial;" text-anchor="middle"><textPath startOffset="21.466115282336823" xlink:href="#id76">April</textPath></text><path d="M 120.99980553446 99.90962569577887 l 9.852813748448261 -0.04240235394919306 a30.852904988947753,30.852904988947753 0 0,0 -0.002285616567524382,0.5310967963517553 l -9.852083834591234 -0.127203920606247" fill="#ff780b" stroke="none" /><path d="M 120.99824983174949 100.27111621757518 l 6.7959992119651496 0.08774567479457501 a27.796565646889324,27.796565646889324 0 0,0 -0.010295235484456208,0.47837913861163983 l -6.793481913795686 -0.20471462919632968" fill="#ff4e07" stroke="none" /><path d="M 120.8583938346157 102.4346265915055 l 6.640812887394768 0.7751267798018188 a27.68589689796024,27.68589689796024 0 0,0 -0.05932493216931334,0.4728780797108584 l -6.626486445978607 -0.889322613800072" fill="#ff4c07" stroke="none" /><path d="M 120.64145759157962 103.86396538481128 l 5.010593354147756 0.9379550446907544 a26.097627431118372,26.097627431118372 0 0,0 -0.08645779474090723,0.44084643272782353 l -4.9937056264311845 -1.0240652044865228" fill="#ff3605" stroke="none" /><path d="M 120.32669344350535 105.2749913415812 l 6.470558557502499 1.6791781929945688 a27.684890982648657,27.684890982648657 0 0,0 -0.12367489901668838,0.46024030743281674 l -6.440695582144033 -1.790309433602934" fill="#ff4c07" stroke="none" /><path d="M 119.79798401119884 107.00284435728193 l 6.300814859930592 2.2286928690913315 a27.683362911279076,27.683362911279076 0 0,0 -0.16277255682527056,0.4478801683517062 l -6.2615180421000955 -2.3368208344491688" fill="#ff4c07" stroke="none" /><path d="M 119.26925614724726 108.34839909993367 l 4.150521689528291 1.7982122025018157 a25.523317081575335,25.523317081575335 0 0,0 -0.17812712693025975,0.4016296470395795 l -4.118953477866758 -1.869390186034083" fill="#ff2d04" stroke="none" /><line stroke="#e1ed5e" stroke-width="0.3" x1="174.80103733775053" x2="179.2010983576182" y1="140.37084112569926" y2="142.7455964860345" /><path d="M 175.68104954172406 140.8457921977663 a86.0,86.0 0 0,1 -30.038265399797805,32.042727171017184" fill="none" id="id77" stroke="none" /><text fill="#e1ed5e" style="font-size:6.75px; font-family:Arial;" text-anchor="middle"><textPath startOffset="22.206326154141568" xlink:href="#id77">May</textPath></text><path d="M 118.48025628344425 109.97397251340804 l 9.360260512151337 5.051822855409906 a31.636512164134516,31.636512164134516 0 0,0 -0.2627692401952065,0.47700249743959267 l -9.271914862504621 -5.212195871247303" fill="#ff820c" stroke="none" /><path d="M 117.55443506779139 111.5257021239791 l 5.570990044481082 3.6577407099903088 a27.664457755678832,27.664457755678832 0 0,0 -0.26478429044703516,0.39581658781401713 l -5.507202648623326 -3.753094212010133" fill="#ff4c07" stroke="none" /><path d="M 117.35343817320211 111.8261652097733 l 5.47652826765181 3.732189980038577 a27.62733761879457,27.62733761879457 0 0,0 -0.2711940149649381,0.3906752051623956 l -5.411473345524736 -3.825906447387992" fill="#ff4b07" stroke="none" /><path d="M 116.27256486870786 113.27417163493432 l 4.975524193889948 4.0587309165053505 a27.420991952695516,27.420991952695516 0 0,0 -0.30150555851258815,0.3631828681150546 l -4.904922635483816 -4.143775041734176" fill="#ff4806" stroke="none" /><path d="M 114.0293411484842 115.62618273729858 l 2.284483269560192 2.5445067343241443 a24.419558206833354,24.419558206833354 0 0,0 -0.31519561860023215,0.2781234862485296 l -2.2403452980533722 -2.583453362344963" fill="#ff1e03" stroke="none" /><path d="M 112.63410532772338 116.77436683061366 l 4.35125456790864 5.777183140567925 a28.232514179343728,28.232514179343728 0 0,0 -0.3907044258756324,0.2890337938391574 l -4.251165171614443 -5.851226883146851" fill="#ff5407" stroke="none" /><path d="M 112.04921762599082 117.19931262002967 l 2.2743946775571837 3.2465199231075275 a24.963932739141086,24.963932739141086 0 0,0 -0.3540635951947895,0.243528169299206 l -2.218174197739511 -3.2851888817718278" fill="#ff2503" stroke="none" /><path d="M 111.45004920935366 117.60387380957326 l 3.6648093819109056 5.634459792766383 a27.7214555687026,27.7214555687026 0 0,0 -0.40224914216814955,0.25673443429116805 l -3.5672784376958253 -5.696708655881359" fill="#ff4d07" stroke="none" /><line stroke="#e1ed5e" stroke-width="0.3" x1="143.8653032363475" x2="146.44561519142675" y1="172.8068346515853" y2="177.08958963109032" /><path d="M 144.38136562736335 173.6633856474863 a86.0,86.0 0 0,1 -40.68145358897372,12.25698825130547" fill="none" id="id78" stroke="none" /><text fill="#e1ed5e" style="font-size:6.75px; font-family:Arial;" text-anchor="middle"><textPath startOffset="21.466115282336833" xlink:href="#id78">June</textPath></text><path d="M 110.5260780823613 118.17145234162733 l 3.8817466144952553 6.701163819578122 a28.744259378143802,28.744259378143802 0 0,0 -0.4302758752122091,0.2443218714560348 l -3.765821972361847 -6.766988856828785" fill="#ff5b08" stroke="none" /><path d="M 109.89434966115114 118.52300852407294 l 3.1542758908587873 5.905055027826609 a27.69470920035466,27.69470920035466 0 0,0 -0.42242225279794093,0.22099135775526324 l -3.052162735534351 -5.958475804526589" fill="#ff4c07" stroke="none" /><path d="M 105.18746579009965 120.34920634021253 l 2.740950839774679 10.752104488747337 a32.095970549843855,32.095970549843855 0 0,0 -0.536532620690539,0.13186666439192762 l -2.555464934340929 -10.797692411453294" fill="#ff890c" stroke="none" /><path d="M 104.83641907484287 120.43548508189849 l 10.765213806434684 45.48662196978685 a67.74315571846373,67.74315571846373 0 0,0 -1.1370522574904847,0.2587893918805108 l -9.980641399551336 -45.66518809524505" fill="#39ff87" stroke="none" /><path d="M 104.48393922423573 120.51570834832081 l 4.247706512336448 19.434854844896137 a40.8936319825498,40.8936319825498 0 0,0 -0.6889769604090853,0.14438182085123352 l -3.9125380904979847 -19.50509264647391" fill="#fffa17" stroke="none" /><path d="M 104.13013068566511 120.58985236759428 l 1.9013528672513698 9.478773873012056 a30.667590023449534,30.667590023449534 0 0,0 -0.5184756019696328,0.09936708309981306 l -1.7379096507100324 -9.510098154460337" fill="#ff750a" stroke="none" /><path d="M 103.41894727170886 120.7198165907248 l 1.1622379881847575 7.043500831156367 a28.13874646556944,28.13874646556944 0 0,0 -0.47857862288161906,0.07474413842762422 l -1.0408235016946212 -7.062463276931097" fill="#ff5207" stroke="none" /><path d="M 103.06178313531738 120.77559828337769 l 0.8418259114835214 5.712173654554732 a26.77387207383695,26.77387207383695 0 0,0 -0.45652181394582736,0.06326976357664917 l -0.7433755063508636 -5.725817983623983" fill="#ff3f05" stroke="none" /><path d="M 102.70371172650421 120.8252237178851 l 2.5693984761937467 19.79068166276437 a40.95677552126958,40.95677552126958 0 0,0 -0.6999173130868648,0.08475023930434568 l -2.2283537400555016 -19.831977430794065" fill="#fffa17" stroke="none" /><path d="M 102.34483914955558 120.86867818915974 l 2.8548133365283164 25.407363580321555 a46.56724629851776,46.56724629851776 0 0,0 -0.7973363730850186,0.08264717518200017 l -2.417044366837695 -25.452740123959313" fill="#c1ff1e" stroke="none" /><path d="M 101.98527174616119 120.90594882070398 l 1.9583701572253227 20.622661032734218 a41.715437763749165,41.715437763749165 0 0,0 -0.7154310451673017,0.06173040095387554 l -1.6030947943164793 -20.653315685966756" fill="#faff18" stroke="none" /><path d="M 101.62511606390274 120.93702456842531 l 1.5828406996509787 20.392374029526284 a41.45371123391962,41.45371123391962 0 0,0 -0.7118929511842006,0.04909630592054516 l -1.2315849876878477 -20.416598679963116" fill="#fdff18" stroke="none" /><path d="M 101.26447882468166 120.96189622390904 l 1.2308410501143432 20.40426605571629 a41.4413561918749,41.4413561918749 0 0,0 -0.7124201926854175,0.03682398640841937 l -0.8794327890154462 -20.422429848886907" fill="#feff18" stroke="none" /><path d="M 100.90346689309514 120.98055641714683 l 1.8368484896787125 42.65580029770587 a63.69533126012491,63.69533126012491 0 0,0 -1.0958012798868788,0.03774161172316495 l -1.1023268581171815 -42.68109870785513" fill="#34ff58" stroke="none" /><line stroke="#e1ed5e" stroke-width="0.3" x1="102.19456741930631" x2="102.32365962044197" y1="184.97166512339345" y2="189.96999836594603" /><path d="M 102.22038585953345 185.97133177190398 a86.0,86.0 0 0,1 -42.740103519485714,-10.115201625700543" fill="none" id="id79" stroke="none" /><text fill="#e1ed5e" style="font-size:6.75px; font-family:Arial;" text-anchor="middle"><textPath startOffset="22.20632615414155" xlink:href="#id79">July</textPath></text><path d="M 100.54218724476979 120.99299961872073 l 0.26125013586377194 10.115368916337225 a31.118742014059364,31.118742014059364 0 0,0 -0.5355984649386514,0.009220813296497776 l -0.08709198103245255 -10.118367206912882" fill="#ff7b0b" stroke="none" /><path d="M 100.18074693466247 120.99922214144158 l 0.02099775791052689 2.4395245410872217 a23.439614906579333,23.439614906579333 0 0,0 -0.403489385145963,0.0 l 0.02099775791052521 -2.4395245410872217" fill="#ff0f01" stroke="none" /><path d="M 99.81925306533755 120.99922214144158 l -0.1825934330327469 21.213748764170344 a42.214534569278804,42.214534569278804 0 0,0 -0.7265730697979438,-0.012508614309858921 l 0.5477261927233587 -21.207462672581325" fill="#f4ff19" stroke="none" /><path d="M 98.73552117531835 120.96189622390904 l -0.6932245479793966 11.491929126032487 a32.512818738765716,32.512818738765716 0 0,0 -0.5583491994877875,-0.038507029832145184 l 0.8909365082461141 -11.478293751684056" fill="#ff8e0d" stroke="none" /><path d="M 98.01472825383883 120.90594882070398 l -0.9484845906661588 9.988038336834942 a31.03297228326759,31.03297228326759 0 0,0 -0.5313545363573866,-0.0550770702710598 l 1.1202717236291386 -9.970231898108121" fill="#ff7a0b" stroke="none" /><path d="M 97.2962882734958 120.8252237178851 l -1.1756320496665529 9.055255486085855 a30.131251975194374,30.131251975194374 0 0,0 -0.5137685640029728,-0.07120364150099179 l 1.3313292048563568 -9.033677279092258" fill="#ff6e0a" stroke="none" /><path d="M 96.58105272829116 120.7198165907248 l -3.9554401216032473 23.971119570454956 a45.29526867553922,45.29526867553922 0 0,0 -0.7681884060115777,-0.1335594010791586 l 4.367477499086875 -23.89948159085479" fill="#d0ff1d" stroke="none" /><path d="M 96.22490169976321 120.6578951692458 l -10.743985750979194 58.7926760290393 a80.76631145112451,80.76631145112451 0 0,0 -1.3654598198446741,-0.26169362429498627 l 11.754413185395563 -58.599025206395844" fill="#49f0ff" stroke="none" /><path d="M 95.86986931433489 120.58985236759428 l -0.2809075036375713 1.4004021831371265 a22.428298043174156,22.428298043174156 0 0,0 -0.3778725406324568,-0.07918686487542777 l 0.30497150569941484 -1.3953593375351576" fill="#ff0100" stroke="none" /><path d="M 95.16358092515715 120.4354850818985 l -4.389457601362635 18.546923652017632 a40.05926847987433,40.05926847987433 0 0,0 -0.6696511721642727,-0.16458396558590474 l 4.7080620582701185 -18.468618428117697" fill="#ffef16" stroke="none" /><path d="M 94.46302465271185 120.25689768951611 l -6.493361858652544 23.75581587087126 a45.62727219807631,45.62727219807631 0 0,0 -0.7558240896246491,-0.21360343745069613 l 6.901317116381807 -23.640523640082044" fill="#ccff1d" stroke="none" /><path d="M 93.76903079525671 120.05430185196036 l -11.610229737287769 37.36738925702456 a60.12951845395744,60.12951845395744 0 0,0 -0.9857766539837116,-0.31561455480487477 l 12.25172773636242 -37.16200185555998" fill="#31ff2f" stroke="none" /><path d="M 93.42475214034765 119.94407469862007 l -13.505293207046202 40.9643229118266 a64.13315078026054,64.13315078026054 0 0,0 -1.0454627921039883,-0.35467774154436993 l 14.208425732087417 -40.725782183384105" fill="#34ff5e" stroke="none" /><path d="M 92.06813273071674 119.44442032107085 l -8.325459764912706 20.409284918575615 a43.042055058110584,43.042055058110584 0 0,0 -0.6836073239886425,-0.28574791686944917 l 8.67553854839881 -20.262951958686195" fill="#eaff1a" stroke="none" /><path d="M 90.42595943632237 118.69057910512821 l -12.224852507682707 23.86553214639818 a47.81437382198885,47.81437382198885 0 0,0 -0.7293037583420002,-0.3815372573402474 l 12.633847168551203 -23.651565470113216" fill="#b3ff20" stroke="none" /><line stroke="#e1ed5e" stroke-width="0.3" x1="58.666819895761336" x2="56.23545636021788" y1="174.27360380694188" y2="178.64263932499728" /><path d="M 58.180547188652646 175.14741091055294 a86.0,86.0 0 0,1 -31.652253787137756,-30.449443065178592" fill="none" id="id80" stroke="none" /><text fill="#e1ed5e" style="font-size:6.75px; font-family:Arial;" text-anchor="middle"><textPath startOffset="22.20632615414155" xlink:href="#id80">August</textPath></text><path d="M 88.24862548938628 117.40417183066458 l -24.20827072490595 35.85324448973813 a64.26078492042505,64.26078492042505 0 0,0 -0.9114110655846568,-0.6268768415989185 l 24.821838675113497 -35.43122685877411" fill="#34ff5f" stroke="none" /><path d="M 87.95078237400918 117.19931262002967 l -16.988364840836102 24.249557678367015 a50.60820135641145,50.60820135641145 0 0,0 -0.7091719355196563,-0.5059753463105595 l 17.403264104204645 -23.953538070212236" fill="#93ff23" stroke="none" /><path d="M 85.44109423537348 115.13401014063109 l -2.594214560638252 2.6966909534549965 a24.741936836061445,24.741936836061445 0 0,0 -0.3043847885672174,-0.29790458011878185 l 2.6402493015812634 -2.651636270413645" fill="#ff2203" stroke="none" /><path d="M 83.95833913139862 113.55231037782056 l -16.279206624702084 13.752993701198372 a42.310969102200545,42.310969102200545 0 0,0 -0.4652272387656711,-0.5603961788754549 l 16.513529863361292 -13.470736265209156" fill="#f3ff19" stroke="none" /><path d="M 83.72743513129214 113.27417163493432 l -3.6000490338456776 2.9367016911601143 a25.645919701087813,25.645919701087813 0 0,0 -0.27609919396644333,-0.3444761966649444 l 3.650066139866982 -2.8742976609169104" fill="#ff2f04" stroke="none" /><path d="M 83.50135304334701 112.99209946851258 l -9.68881756715085 7.629600287551839 a33.33223363374786,33.33223363374786 0 0,0 -0.35108870698474465,-0.4538294810117568 l 9.818713091353661 -7.461692812426829" fill="#ff990e" stroke="none" /><path d="M 83.06392112726016 112.41649034213515 l -5.811267935772059 4.2604638737372875 a28.205719078673063,28.205719078673063 0 0,0 -0.2836960876186959,-0.39402905294135054 l 5.883743815766362 -4.159801215344799" fill="#ff5307" stroke="none" /><path d="M 82.24976979558568 111.22182372390057 l -38.99182446568864 24.650913018492243 a67.13057432775301,67.13057432775301 0 0,0 -0.6090832461350233,-0.9820361290972637 l 39.41037235149161 -23.976080558029714" fill="#38ff80" stroke="none" /><line stroke="#e1ed5e" stroke-width="0.3" x1="26.63291911575756" x2="22.317208475507996" y1="142.92168965132927" y2="145.44649492493687" /><path d="M 25.769776987707644 143.4266507060508 a86.0,86.0 0 0,1 -11.730757126820373,-40.83630448921669" fill="none" id="id81" stroke="none" /><text fill="#e1ed5e" style="font-size:6.75px; font-family:Arial;" text-anchor="middle"><textPath startOffset="21.46611528233685" xlink:href="#id81">September</textPath></text><path d="M 81.51974371655577 109.97397251340807 l -6.070145664817354 3.276116147128871 a27.897797141231354,27.897797141231354 0 0,0 -0.22444108824104672,-0.4245579561195588 l 6.125639261283287 -3.171143175923186" fill="#ff4f07" stroke="none" /><path d="M 81.02952815118164 109.00673069616217 l -1.2552706544638985 0.5959727741962195 a22.389563947265962,22.389563947265962 0 0,0 -0.1622980928886554,-0.34957565336599816 l 1.2653433641923808 -0.5742770535513941" fill="#ff0000" stroke="none" /><path d="M 80.73074385275274 108.34839909993369 l -13.799739563922863 5.978732779014453 a36.03921732255239,36.03921732255239 0 0,0 -0.24171849516565388,-0.5713511200824353 l 13.900609040280823 -5.740307133265858" fill="#ffbd11" stroke="none" /><path d="M 80.58989483394504 108.01547362559985 l -40.11143031427781 16.564161245836587 a64.39698468367635,64.39698468367635 0 0,0 -0.414279251451034,-1.0282071273073268 l 40.390612179986235 -15.871254750686456" fill="#35ff61" stroke="none" /><path d="M 80.45479744820244 107.68017299344265 l -6.434406985882993 2.528362580578752 a27.913335707084585,27.913335707084585 0 0,0 -0.1718739991691809,-0.44870877646601276 l 6.4769752646456835 -2.4172302372795818" fill="#ff4f07" stroke="none" /><path d="M 80.20201598880116 107.00284435728193 l -6.562157982374919 2.321133857491388 a27.96057323573567,27.96057323573567 0 0,0 -0.15659141831456563,-0.4551279604402512 l 6.601140231632713 -2.20783319396184" fill="#ff5007" stroke="none" /><path d="M 80.0844068197444 106.66101706037122 l -3.532160177145902 1.1813747643358288 a24.724486790260492,24.724486790260492 0 0,0 -0.13151984591040375,-0.40477646457027744 l 3.5519722740725554 -1.120399399787748" fill="#ff2203" stroke="none" /><path d="M 79.86692584326677 105.97154293290107 l -26.249854076217837 7.785802077627553 a48.38016714731157,48.38016714731157 0 0,0 -0.22993794809441448,-0.800444162341502 l 26.379984661198357 -7.332800439781455" fill="#acff20" stroke="none" /><path d="M 79.76711848015287 105.62410040840567 l -4.710989132032866 1.3095058099100123 a25.88960367190633,25.88960367190633 0 0,0 -0.11565492967669433,-0.43039501801687424 l 4.732832138051335 -1.2282198587175992" fill="#ff3304" stroke="none" /><path d="M 79.67330655649465 105.27499134158121 l -60.98008033051604 15.824974024743632 a84.0,84.0 0 0,0 -0.3511547428197659,-1.4026886424104326 l 61.24344638763086 -14.772957542935808" fill="#4dd2ff" stroke="none" /><path d="M 79.23777060512086 103.15116336523772 l -8.537632181663483 1.2957892548556529 a29.635405784465217,29.635405784465217 0 0,0 -0.07220588859382542,-0.5050078166509099 l 8.558672121273906 -1.1486359662243426" fill="#ff6709" stroke="none" /><path d="M 79.07016306316243 101.71520430193888 l -60.95360305898957 4.995159900240038 a82.15793773748285,82.15793773748285 0 0,0 -0.10337597371740798,-1.4104830287804342 l 61.03055559137132 -3.9452037349628433" fill="#4be3ff" stroke="none" /><path d="M 79.0095281055655 100.63252640178507 l -28.467375378700247 0.8578352410137382 a49.48029743967844,49.48029743967844 0 0,0 -0.018326411991095477,-0.8515563529730191 l 28.47792385337635 -0.3676890722505902" fill="#a0ff22" stroke="none" /><line stroke="#e1ed5e" stroke-width="0.3" x1="15.007084014347285" x2="10.007500721073583" y1="101.09737516637583" y2="101.16192664675087" /><path d="M 14.007167355692545 101.11028546245083 a86.0,86.0 0 0,1 10.666146001902534,-42.60595125391555" fill="none" id="id82" stroke="none" /><text fill="#e1ed5e" style="font-size:6.75px; font-family:Arial;" text-anchor="middle"><textPath startOffset="22.20632615414155" xlink:href="#id82">October</textPath></text><path d="M 79.00175016825051 100.2711162175752 l -3.9080132057615775 0.05045781277342541 a24.90833893198591,24.90833893198591 0 0,0 -0.0018452366852603856,-0.42876802083825205 l 3.908302739736341 0.016819686268502037" fill="#ff2503" stroke="none" /><path d="M 79.00019446554 99.90962569577889 l -3.7178254209743846 -0.015999952241690773 a24.717859849337398,24.717859849337398 0 0,0 0.005493241713436295,-0.4254576244703959 l 3.7169991721432325 0.07999383477255866" fill="#ff2203" stroke="none" /><path d="M 79.00486145842228 99.54816195383935 l -3.5892856408073683 -0.07724530170844975 a24.590116745725965,24.590116745725965 0 0,0 0.012749747833277295,-0.42310205993025424 l 3.587424198518446 0.1390175090636984" fill="#ff2003" stroke="none" /><path d="M 79.03285615573316 98.82574320788736 l -5.726959258267991 -0.3207361411321843 a26.735933578598154,26.735933578598154 0 0,0 0.029688865238008264,-0.459273604629182 l 5.72058980202557 0.41926881001437805" fill="#ff3f05" stroke="none" /><path d="M 79.08570108090925 98.10471618934814 l -3.871780513971653 -0.3508663118432091 a24.88764601232636,24.88764601232636 0 0,0 0.0423361071696913,-0.42631882160952866 l 3.8651672811197333 0.41746066415716804" fill="#ff2403" stroke="none" /><path d="M 79.12142395522702 97.74499172005258 l -6.614766549514137 -0.7144334607439851 a27.6532361805667,27.6532361805667 0 0,0 0.05518749364933017,-0.4728127431530456 l 6.601488702861218 0.8281899422218925" fill="#ff4c07" stroke="none" /><path d="M 79.21141760316559 97.0276538004421 l -2.238085641341514 -0.32000091316181095 a23.26084672687103,23.26084672687103 0 0,0 0.06008399278783097,-0.3958784412712003 l 2.232245755114381 0.3584784668251033" fill="#ff0d01" stroke="none" /><path d="M 79.26566170972629 96.67025291283419 l -17.033577649354374 -2.7354384194915946 a38.25182282784679,38.25182282784679 0 0,0 0.1099979225729479,-0.6492139656509347 l 16.983967865261203 3.0282381734583574" fill="#ffd914" stroke="none" /><path d="M 79.46518482838121 95.60439243477599 l -3.624111400477337 -0.7757640551432806 a24.706210100941682,24.706210100941682 0 0,0 0.09259606718338409,-0.41509001291893005 l 3.6102209462919155 0.8380322376121698" fill="#ff2203" stroke="none" /><path d="M 79.62865764111835 94.90015583598534 l -3.5481212017556083 -0.8882509991346181 a24.657615876470807,24.657615876470807 0 0,0 0.10661914137697598,-0.4108470444104867 l 3.532305728508325 0.9491944690939687" fill="#ff2103" stroke="none" /><path d="M 79.81627453868168 94.20196356495316 l -4.33620940282461 -1.245632287049929 a25.51157531020882,25.51157531020882 0 0,0 0.12487807129904963,-0.42102677620575807 l 4.314125434413854 1.3200884500022263" fill="#ff2d04" stroke="none" /><path d="M 79.91906864156998 93.8553929516997 l -4.11740263025297 -1.259892819260183 a25.30584885192658,25.30584885192658 0 0,0 0.13104153767798618,-0.41543748476857134 l 4.09510560880678 1.330580470455169" fill="#ff2a04" stroke="none" /><path d="M 80.65960295795068 91.81776055985345 l -6.525213980368171 -2.760587751610435 a28.085143768755422,28.085143768755422 0 0,0 0.19219505118924285,-0.44361267678592925 l 6.476728219336247 2.872499572982963" fill="#ff5207" stroke="none" /><path d="M 80.803312248108 91.48605970444005 l -6.203405370542225 -2.751277909843951 a27.786145321791114,27.786145321791114 0 0,0 0.19767551102834277,-0.4355517856690232 l 6.155127542550531 2.8576517043550447" fill="#ff4d07" stroke="none" /><path d="M 80.95270993114464 91.15688171328213 l -9.549399017102228 -4.433515989415348 a31.528394256306825,31.528394256306825 0 0,0 0.23277234241748368,-0.4902779174796417 l 9.471668480842993 4.5972363225355215" fill="#ff810b" stroke="none" /><path d="M 81.43458229118936 90.18545643968196 l -7.250247575844705 -3.8328181876806675 a29.201011228553327,29.201011228553327 0 0,0 0.23874176774157468,-0.44235223703451465 l 7.183197708884659 3.9570514080476547" fill="#ff6109" stroke="none" /><path d="M 81.6062741919709 89.86733742301443 l -5.942953992742177 -3.2738308783922223 a27.78503285033791,27.78503285033791 0 0,0 0.23437648837505504,-0.4169296203878662 l 5.885719863074692 3.375644008714873" fill="#ff4d07" stroke="none" /><line stroke="#e1ed5e" stroke-width="0.3" x1="26.266209847984243" x2="21.928928074336255" y1="57.711370442889674" y2="55.22380399835377" /><path d="M 25.398753493254645 57.213857153982495 a86.0,86.0 0 0,1 29.58750427330803,-30.492523968695096" fill="none" id="id83" stroke="none" /><text fill="#e1ed5e" style="font-size:6.75px; font-family:Arial;" text-anchor="middle"><textPath startOffset="21.46611528233685" xlink:href="#id83">November</textPath></text><path d="M 82.15384107792192 88.93136811851018 l -1.722933231576144 -1.068606066995695 a23.02741654498759,23.02741654498759 0 0,0 0.21182197172574962,-0.33505149011359764 l 1.7042836636044318 1.0981052048235083" fill="#ff0901" stroke="none" /><path d="M 82.7489923806493 88.02491185347247 l -7.110233942373337 -4.935693037828321 a29.6554313860688,29.6554313860688 0 0,0 0.2947006802164067,-0.4168332126855484 l 7.024220642353052 5.057352750845656" fill="#ff6709" stroke="none" /><path d="M 83.17141714833178 87.43820079747576 l -5.4961882722350595 -4.10266354948844 a27.858566448184,27.858566448184 0 0,0 0.2901589882420587,-0.38181521647225675 l 5.424753343768892 4.1966635418417235" fill="#ff4e07" stroke="none" /><path d="M 83.39014120810768 87.1503855733568 l -3.452650660843594 -2.6710178754433955 a25.36521856002215,25.36521856002215 0 0,0 0.2701346488471916,-0.34304357143283876 l 3.406161931402431 2.730053840829282" fill="#ff2b04" stroke="none" /><path d="M 83.6137871275137 86.86637796730984 l -5.579949875828904 -4.472354484881876 a28.151069518275293,28.151069518275293 0 0,0 0.3063124683137241,-0.37550286735868044 l 5.502138915438787 4.567741521848639" fill="#ff5307" stroke="none" /><path d="M 84.31358615837235 86.03803664274999 l -6.6858062123933175 -5.950817203572142 a29.950543564499714,29.950543564499714 0 0,0 0.34608046966343065,-0.38215069846997307 l 6.582382102113842 6.065020689311671" fill="#ff6b09" stroke="none" /><path d="M 84.80347519578584 85.50635884689758 l -3.9656176265565173 -3.782196230403222 a26.480066740955998,26.480066740955998 0 0,0 0.3174275761059583,-0.3271370198488731 l 3.8999257867474406 3.849897445802219" fill="#ff3b05" stroke="none" /><path d="M 85.31137513191541 84.99185889309783 l -5.437536274285 -5.555816995209988 a28.773924569895783,28.773924569895783 0 0,0 0.35695664273761546,-0.343392007497205 l 5.3410963879349564 5.648592089469506" fill="#ff5b08" stroke="none" /><path d="M 85.57189188830299 84.74124197986013 l -5.564458218937777 -5.8848132283618835 a29.099025991007018,29.099025991007018 0 0,0 0.36691393674605866,-0.3410065164800697 l 5.462336398396863 5.979724330916601" fill="#ff6008" stroke="none" /><path d="M 86.10567301691215 84.25364557470407 l -5.7959369036886565 -6.568499274791892 a29.7600266731604,29.7600266731604 0 0,0 0.3870308493751207,-0.3356293387127821 l 5.682012255666763 6.667293606924355" fill="#ff6909" stroke="none" /><path d="M 86.37877921826538 84.01681056812374 l -4.406076514062414 -5.170106020896051 a27.79290118543454,27.79290118543454 0 0,0 0.36679014712301855,-0.3071761998955951 l 4.316428829980285 5.245183378185459" fill="#ff4e07" stroke="none" /><path d="M 86.93701828274178 83.55741782278169 l -4.391021748357946 -5.527048686284333 a28.058989954314274,28.058989954314274 0 0,0 0.38075707962325156,-0.2971869401146676 l 4.295232113575269 5.601814015622223" fill="#ff5107" stroke="none" /><path d="M 87.22198572758235 83.33499621200491 l -4.597482726028269 -5.99600731468011 a28.55572307154158,28.55572307154158 0 0,0 0.39264642233894825,-0.2957331448916773 l 4.493590149930931 6.074257049077642" fill="#ff5808" stroke="none" /><path d="M 88.09926311788651 82.69761687909137 l -4.877522163657827 -7.091389213315953 a29.60685909212572,29.60685909212572 0 0,0 0.4223845713032347,-0.28519594802804676 l 4.7547328979480525 7.174297073642665" fill="#ff6709" stroke="none" /><path d="M 88.39885842347998 82.49532879139004 l -5.244479242009161 -7.913263034178771 a30.49338160867692,30.49338160867692 0 0,0 0.4400238153700993,-0.2862037295754319 l 5.107488400854774 8.002365687913738" fill="#ff730a" stroke="none" /><path d="M 89.00827224532344 82.1063720568725 l -7.043757965913985 -11.466658124777599 a34.457294484141485,34.457294484141485 0 0,0 0.5080612127523602,-0.30610119594759105 l 6.845334686943976 11.58620593018381" fill="#ffa80f" stroke="none" /><line stroke="#e1ed5e" stroke-width="0.3" x1="56.762969772571076" x2="54.21961505331055" y1="26.818313649435495" y2="22.513508569990535" /><path d="M 56.25429882871897 25.957352633546506 a86.0,86.0 0 0,1 42.265352541879196,-11.944610805530505" fill="none" id="id84" stroke="none" /><text fill="#e1ed5e" style="font-size:6.75px; font-family:Arial;" text-anchor="middle"><textPath startOffset="22.20632615414155" xlink:href="#id84">December</textPath></text><path d="M 89.3179101791058 81.91981866633112 l -3.841624082257257 -6.502216437755639 a28.552277417626986,28.552277417626986 0 0,0 0.42529741294239864,-0.24635971262476425 l 3.729129936849538 6.56738030777045" fill="#ff5808" stroke="none" /><path d="M 90.26544431104013 81.39251694778311 l -5.039055947193855 -9.632093249301755 a31.870570601499914,31.870570601499914 0 0,0 0.4882867545521173,-0.2501194408420339 l 4.872508705052974 9.717405215456294" fill="#ff860c" stroke="none" /><path d="M 90.58718382345135 81.22770947309562 l -3.068803345317774 -6.120215978696018 a27.84650258147323,27.84650258147323 0 0,0 0.43033286671221,-0.2111624687805599 l 2.962999211595138 6.172133607611408" fill="#ff4e07" stroke="none" /><path d="M 91.23893434514133 80.91482961587045 l -3.738804478137084 -8.144639397676546 a29.961797244075704,29.961797244075704 0 0,0 0.47056840447471837,-0.21113032634805226 l 3.5980539551955917 8.207790054541128" fill="#ff6c09" stroke="none" /><path d="M 91.56875222667455 80.76684994638697 l -5.308058657737601 -12.108609710254129 a34.220965011270685,34.220965011270685 0 0,0 0.5415324998730865,-0.2318559550177415 l 5.098842400074206 12.198185193234655" fill="#ffa50f" stroke="none" /><path d="M 92.57280143429618 80.3572730644239 l -3.877446889236063 -10.254691560847697 a31.963270195838803,31.963270195838803 0 0,0 0.5163098179302565,-0.19016126326150812 l 3.700354745533237 10.319916091915527" fill="#ff870c" stroke="none" /><path d="M 92.91201910852362 80.23233633223022 l -2.376340457587233 -6.627373809964382 a28.040531058618214,28.040531058618214 0 0,0 0.4557494221870845,-0.15900202452659093 l 2.261909031336863 6.667296687663183" fill="#ff5107" stroke="none" /><path d="M 93.59665428221793 80.00007090966166 l -3.4949021456010265 -10.915824034861311 a32.46165587371138,32.46165587371138 0 0,0 0.5336304016017075,-0.1658015633573412 l 3.30648637128859 10.974365733101179" fill="#ff8d0d" stroke="none" /><path d="M 94.28887869178378 79.79150937346287 l -1.881360541214823 -6.657091455504609 a27.917830883520686,27.917830883520686 0 0,0 0.4635717408275625,-0.12671166829213443 l 1.766490911163538 6.688489664623039" fill="#ff4f07" stroke="none" /><path d="M 94.98787191387505 79.60689891045804 l -3.2105414423584167 -13.062893657372275 a34.451645514840095,34.451645514840095 0 0,0 0.5771082303468666,-0.1365828725040031 l 2.9852095250490156 13.116222442017149" fill="#ffa80f" stroke="none" /><path d="M 95.33964822691252 79.52364482259891 l -1.5263496316007275 -6.706377265775791 a27.87788043141214,27.87788043141214 0 0,0 0.4688226814062561,-0.10246647957154055 l 1.4106842260409505 6.7316572434432" fill="#ff4f07" stroke="none" /><path d="M 96.40284397218896 79.31037775812273 l -1.961380587602892 -11.281196344087766 a32.45043251424524,32.45043251424524 0 0,0 0.5511486440948746,-0.09094424869946516 l 1.7669027373691317 11.313286855726858" fill="#ff8d0d" stroke="none" /><path d="M 96.75951476605007 79.25152402106235 l -1.7108267363703475 -10.954238294872921 a32.08703137646593,32.08703137646593 0 0,0 0.5464437021992118,-0.08053159716380054 l 1.522014053742487 10.982064376197691" fill="#ff880c" stroke="none" /><path d="M 97.47563105711357 79.15227682838746 l -1.6189485149516913 -13.370228850230548 a34.46788824580905,34.46788824580905 0 0,0 0.5896196722666966,-0.06625064023447846 l 1.3885621391752767 13.396115443935624" fill="#ffa80f" stroke="none" /><path d="M 97.83486435360386 79.11191278185805 l -0.7197019414442584 -6.943304891301579 a27.980505260945733,27.980505260945733 0 0,0 0.47949908451113427,-0.045534215784902216 l 0.6000777298428878 6.954664651601662" fill="#ff5007" stroke="none" /><path d="M 98.19473922651362 79.07773832637324 l -1.1581094487984513 -13.422032589600084 a34.471903218613285,34.471903218613285 0 0,0 0.5916196243495409,-0.04592106925740062 l 0.9268996350865765 13.439978921045945" fill="#ffa80f" stroke="none" /><path d="M 98.91598698831166 79.02799685794201 l -0.6383578602852039 -12.350075974464193 a33.366562874656225,33.366562874656225 0 0,0 0.5738400035161964,-0.024710757655922927 l 0.42567702437968347 12.359234458644309" fill="#ff9a0e" stroke="none" /></svg>